<svg width="691" height="288" fill="none" xmlns="http://www.w3.org/2000/svg"><path d="M.258 182.8L117.058 4h63.2v178.8h32v42.4h-32V284h-48v-58.8h-132v-42.4zm132 0V57.2l-80.4 125.6h80.4zM346.43 288c-15.467 0-29.467-2.4-42-7.2-12.267-5.067-22.667-12.933-31.2-23.6-8.534-10.667-15.2-24.4-20-41.2-4.534-17.067-6.8-37.6-6.8-61.6v-20.8c0-23.733 2.266-44 6.8-60.8 4.8-17.067 11.466-30.933 20-41.6 8.8-10.933 19.333-18.8 31.6-23.6 12.266-5.067 26.133-7.6 41.6-7.6 15.466 0 29.333 2.533 41.6 7.6 12.533 4.8 23.066 12.533 31.6 23.2 8.8 10.667 15.466 24.533 20 41.6 4.533 16.8 6.8 37.2 6.8 61.2v20.8c0 23.733-2.4 44.133-7.2 61.2-4.534 16.8-11.2 30.667-20 41.6-8.534 10.667-18.934 18.533-31.2 23.6-12.267 4.8-26.134 7.2-41.6 7.2zm0-44.8c7.733 0 14.666-1.333 20.8-4 6.133-2.667 11.333-7.333 15.6-14 4.266-6.667 7.466-15.733 9.6-27.2 2.4-11.467 3.6-26 3.6-43.6v-20.8c0-17.333-1.2-31.733-3.6-43.2-2.4-11.467-5.734-20.533-10-27.2-4.267-6.933-9.467-11.733-15.6-14.4-6.134-2.667-12.934-4-20.4-4-7.734 0-14.667 1.333-20.8 4-6.134 2.667-11.334 7.333-15.6 14-4.267 6.667-7.6 15.733-10 27.2-2.134 11.467-3.2 26-3.2 43.6v20.8c0 17.333 1.066 31.733 3.2 43.2 2.4 11.467 5.733 20.667 10 27.6 4.533 6.667 9.733 11.333 15.6 14 6.133 2.667 13.066 4 20.8 4zm132.14-60.4L595.37 4h63.2v178.8h32v42.4h-32V284h-48v-58.8h-132v-42.4zm132 0V57.2l-80.4 125.6h80.4z" fill="#EDEDED"/></svg>