<svg width="624" height="400" fill="none" xmlns="http://www.w3.org/2000/svg"><path opacity=".1" d="M567.186 369.381c-14.755 4.693-25.368 12.249-35.635 19.558-5.49 3.911-10.882 7.75-16.778 11.061h4.499c4.678-2.867 9.105-6.014 13.597-9.215 10.119-7.207 20.591-14.656 35.004-19.243 37.726-12.002 53.161 5.335 53.309 5.513.349.406.938.509 1.405.251.47-.251.695-.805.539-1.318-3.155-10.438-16-22.128-32.73-29.787-23.784-10.893-50.154-11.478-72.339-1.621-7.658 3.406-14.223 7.472-19.839 11.846.452-2.365.877-4.738 1.295-7.13 2.168-12.238 4.408-24.893 11.466-38.266 18.435-34.901 41.657-33.462 41.885-33.443a1.144 1.144 0 001.18-.809 1.133 1.133 0 00-.543-1.318c-9.564-5.228-26.924-4.556-44.223 1.709-24.596 8.911-43.809 26.973-52.716 49.561-9.717 24.639-7.032 46.35-3.061 60.22a95.78 95.78 0 004.766 13.05h2.551c-6.428-13.92-14.595-40.874-2.149-72.438 8.668-21.984 27.395-39.576 51.38-48.259 14.034-5.084 28.477-6.379 37.939-3.638-.573.095-1.196.224-1.853.376-18.153 1.379-34.628 7.12-47.97 16.813-16.357 11.885-27.589 29.582-32.487 51.183-5.802 25.584-4.883 44.811-3.269 55.963h1.523c-1.61-10.947-2.579-30.06 3.219-55.629 8.27-36.47 34.203-60.292 70.631-65.892-9.139 2.939-21.149 8.995-32.437 21.498-19.41 21.498-23.344 46.285-26.81 68.151-.688 4.321-1.352 8.494-2.1 12.485a95.195 95.195 0 00-2.783 4.765A95.811 95.811 0 00467.201 400h2.46a95.146 95.146 0 015.168-11.831c-1.022 4.203-2.24 8.159-3.82 11.831h2.434c2.916-3.797 6.823-8.361 11.903-13.358-2.62 4.412-5.881 8.859-10.031 13.358h3.015c5.444-6.151 9.321-12.196 12.18-18.206 6.136-5.506 13.635-11.365 22.729-17.204 31.465-20.208 66.655-19.019 96.556 2.517-8.581-4.306-21.384-8.403-38.194-7.4-28.913 1.72-49.094 16.638-66.902 29.802-5.129 3.793-10.001 7.389-14.796 10.491h2.722c4.294-2.863 8.593-6.041 12.974-9.28 17.637-13.035 37.624-27.809 66.09-29.506 13.205-.782 23.837 1.644 31.867 4.792a55.098 55.098 0 00-10.669-1.021c-7.123 0-15.647 1.199-25.701 4.396zM287.211 400a272.461 272.461 0 01-12.094-16.881c-10.115-15.317-20.716-34.803-29.532-58.579-.296-2.992-1.633-19.342 2.156-39.025 3.486-18.093 12.132-42.393 33.189-60.034 1.402 1.405 3.254 2.366 5.385 2.556 4.791.413 9.017-3.133 9.435-7.925.418-4.791-3.129-9.017-7.924-9.435-4.788-.418-9.018 3.125-9.432 7.924a8.641 8.641 0 001.139 5.096c-21.623 18.081-30.47 42.951-34.028 61.457-2.487 12.936-2.787 24.448-2.605 31.811-6.109-17.903-11.144-38.072-14.246-60.569.05-5.001 1.223-32.134 20.633-48.878 1.439 1.841 3.588 3.117 6.098 3.334a8.705 8.705 0 009.435-7.917c.418-4.796-3.129-9.021-7.924-9.435-4.792-.422-9.014 3.125-9.436 7.92-.125 1.458.149 2.84.68 4.101-14.014 11.892-19.015 28.917-20.788 40.156-2.092-19.66-2.711-40.98-1.299-64.016 4.241-.255 7.773-3.547 8.152-7.905.418-4.792-3.128-9.018-7.92-9.436a8.71 8.71 0 00-9.435 7.924c-.388 4.454 2.661 8.373 6.937 9.25-.881 14.307-1.007 28.359-.407 42.123-2.98-8.346-8.816-20.128-19.748-29.362a8.607 8.607 0 001.026-3.398c.417-4.792-3.125-9.018-7.921-9.435a8.709 8.709 0 00-9.435 7.92c-.418 4.796 3.128 9.022 7.92 9.435 2.753.24 5.285-.854 7.051-2.707 18.111 15.374 21.673 38.046 21.711 38.3l.03-.004a358.746 358.746 0 002.377 22.729v.201l.027-.004a336.604 336.604 0 004.609 26.013c-6.447-12.803-19.186-32.118-41.576-45.062.254-.703.455-1.432.52-2.21.418-4.792-3.129-9.018-7.92-9.435-4.792-.418-9.018 3.128-9.436 7.92-.417 4.796 3.129 9.022 7.924 9.435 3.205.281 6.132-1.237 7.86-3.698 35.004 20.276 45.882 56.518 45.992 56.909l.008-.004c.137.516.262 1.036.402 1.549 2.465 9.067 5.362 17.914 8.582 26.59a.304.304 0 01.007.046h.015c7.814 21.004 17.789 40.824 29.886 59.122A276.605 276.605 0 00284.352 400h2.859zm-26.401 0c-19.292-13.513-41.31-31.161-63.07-53.313-9.436-39.15-5.324-103.527-15.857-75.942-8.945 23.427 8.358 62.114 14.471 74.541-9.865-10.138-19.661-21.194-29.108-33.227-8.9-39.283-5.065-101.355-15.438-74.181-8.091 21.18 5.281 54.843 12.439 70.293-10.863-14.182-21.221-29.665-30.638-46.512-15.563-36.671-24.536-90.151-28.507-62.927-3.315 22.687 17.564 53.035 27.801 66.325a382.513 382.513 0 0013.293 21.718c-11.683-13.16-36.162-37.54-58.123-38.717-29.23-1.561 29.984 20.427 62.133 44.701a401.66 401.66 0 0023.024 30.406c-11.797-9.88-43.387-34.028-67.312-31.252-29.335 3.405 34.104 15.301 69.716 34.104a406.188 406.188 0 0011.694 13.198 426.525 426.525 0 0017.645 17.948c-13.29-8.562-47.003-28.113-70.111-22.52-28.633 6.93 35.388 11.023 73.061 25.269 15.157 14.284 31.522 27.706 48.958 40.088h3.929zm204.116-180.951c-2.251 17.371-10.32 40.795-34.962 59.487.304-.349.6-.665.904-1.037.805-.793 9.948-10.05 17.283-27.714 4.716-11.356 9.208-27.778 8.9-48.688.399-.911 4.34-10.092 6.383-16.752 1.413 6.447 3.463 19.486 1.492 34.704zm-92.311 0c-1.97-15.218.084-28.257 1.492-34.704 2.047 6.66 5.988 15.837 6.383 16.752-.308 20.91 4.184 37.332 8.9 48.688 7.336 17.664 16.479 26.921 17.287 27.714.304.372.6.688.9 1.037-24.638-18.692-32.706-42.116-34.962-59.487zm12.625-42.328c.532 8.816 1.781 24.365 4.659 41.276 4.442 26.161 10.943 45.936 19.387 59.058-.3-.349-.6-.68-.907-1.048a.458.458 0 00-.084-.087c-.091-.091-9.53-9.409-16.858-27.118-6.3-15.21-12.17-39.708-6.197-72.081zm10.996 16.919c.133.479.562.813 1.059.828.486.045.946-.292 1.105-.763 3.892-11.368 9.606-23.302 17.014-35.551-15.138 45.837-14.105 77.962-10.354 97.152 2.255 11.52 5.638 19.733 8.414 25.03-21.961-28.849-26.252-93.234-26.958-108.061 2.365 3.455 6.648 10.658 9.709 21.323a.28.28 0 00.011.042zm44.041.828a1.13 1.13 0 001.044-.885c3.06-10.677 7.343-17.868 9.709-21.312-.707 14.812-4.997 79.212-26.959 108.065 2.772-5.297 6.155-13.51 8.411-25.03 3.751-19.19 4.784-51.315-10.359-97.152 7.416 12.253 13.13 24.183 17.022 35.551.163.478.623.774 1.132.763zm-22.638 89.961c-2.722-4.135-8.053-13.772-11.117-29.548-3.755-19.311-4.697-51.889 11.117-98.565v128.113zm2.267.007v-128.12c15.841 46.756 14.873 79.371 11.091 98.698-3.076 15.727-8.38 25.31-11.091 29.422zm26.203-35.634c-7.336 17.709-16.771 27.027-16.866 27.118a.79.79 0 00-.076.087c-.308.372-.608.703-.912 1.048 8.445-13.122 14.945-32.897 19.391-59.058 2.875-16.911 4.128-32.46 4.659-41.276 5.973 32.373.099 56.871-6.196 72.081zm18.4-69.45a1.137 1.137 0 00-1.17-.786 1.128 1.128 0 00-1.029.961c-.55 3.656-3.455 11.224-5.452 16.137-.441-8.281-1.625-17.2-3.846-26.75a1.12 1.12 0 00-.832-.842 1.123 1.123 0 00-1.128.36c-.277.323-6.401 7.549-10.916 21.301-4.678-12.697-11.535-26.024-20.416-39.678-.418-.642-1.481-.642-1.898 0-8.882 13.658-15.735 26.985-20.417 39.682-4.518-13.764-10.635-20.982-10.912-21.305a1.129 1.129 0 00-1.132-.36 1.12 1.12 0 00-.831.842c-2.221 9.55-3.402 18.469-3.846 26.75-1.998-4.917-4.902-12.484-5.449-16.137a1.135 1.135 0 00-2.202-.175c-.053.179-5.517 17.8-2.673 39.898 2.608 20.31 12.955 48.651 47.279 68.691v112.055h2.267V287.941c34.324-20.04 44.667-48.381 47.28-68.691 2.843-22.098-2.62-39.719-2.677-39.898zm-99.29-40.251c-15.67 9.899-30.748 10.768-38.759 10.328 5.448-1.432 14.151-4.595 24.79-11.604 15.541-10.24 38.034-30.892 59.095-71.595-9.059 35.16-24.217 59.665-45.126 72.871zm-89.954-.03c-20.887-13.214-36.025-37.708-45.081-72.841 21.062 40.703 43.555 61.355 59.096 71.595 10.631 7.005 19.326 10.165 24.771 11.596-8.03.44-23.135-.448-38.786-10.35zM263.818 29.559c.953 9.056 3.831 29.138 11.55 43.976a137.68 137.68 0 00-9.162-4.362c-1.01-3.247-6.679-22.828-2.388-39.614zm29.088 27.091a129.134 129.134 0 00-1.933 8.354c-5.911-13.7-17.154-29.093-22.812-36.424 6.265 4.317 17.592 13.6 24.745 28.07zm79.462-28.07c-5.653 7.331-16.896 22.724-22.812 36.424-.55-2.757-1.169-5.54-1.929-8.354 7.154-14.47 18.476-23.753 24.741-28.07zm1.96 40.593a137.207 137.207 0 00-9.162 4.362c7.719-14.838 10.597-34.92 11.55-43.976 4.287 16.787-1.378 36.367-2.388 39.614zm-39.268 67.741l75.077-73.642c-21.203 41.816-43.969 62.889-59.605 73.217-11.945 7.897-21.578 10.866-26.571 11.971 2.692-2.213 6.812-6.014 11.099-11.546zm-29.59.004c4.287 5.528 8.41 9.329 11.102 11.542-5-1.105-14.625-4.074-26.574-11.971-15.632-10.328-38.403-31.401-59.601-73.217l75.073 73.646zm-16.65-52.364c-.079 4.647.16 9.196.745 13.642-12.302-11.675-29.821-24.57-54.623-36.807 22.17 5.262 40.168 13.02 53.878 23.165zm-1.587-3.922a112.092 112.092 0 00-9.431-5.81c-8.107-14.181-11.254-34.419-12.359-44.28l21.79 50.09zm1.819-1.496L268.12 31.013c6.211 8.164 17.139 23.519 22.333 36.71a110.51 110.51 0 00-1.401 11.413zm13.958 15.112c-3.52-3.854-7.492-7.461-11.911-10.814.645-22.653 9.276-47.709 25.8-74.823-12.071 36.314-14.842 64.746-13.889 85.637zm46.425-10.814c-4.424 3.353-8.395 6.96-11.911 10.814.953-20.891-1.819-49.323-13.893-85.637 16.528 27.114 25.155 52.17 25.804 74.823zm2.046-4.298a112.182 112.182 0 00-1.401-11.414c5.195-13.19 16.122-28.545 22.33-36.709l-20.929 48.123zm1.819 1.496l21.791-50.09c-1.105 9.861-4.257 30.099-12.359 44.28a112.112 112.112 0 00-9.432 5.81zm-2.331 17.564c.585-4.446.824-8.995.744-13.642 13.711-10.145 31.704-17.903 53.882-23.165-24.809 12.237-42.324 25.132-54.626 36.807zm-1.173 6.979c.319-1.488.569-2.999.812-4.511 12.606-12.279 31.082-26.035 57.941-39.01l-67.422 66.136a78.859 78.859 0 008.669-22.615zm-24.278 37.928c2.673-4.936 5.965-12.496 8.478-22.964.073-.103.13-.201.202-.304 3.352-4.864 7.791-10.422 13.608-16.391-.08.399-.133.801-.216 1.196-2.871 13.365-8.639 23.526-14.19 30.728l-7.882 7.735zm-32.574-38.463c-.084-.395-.141-.797-.216-1.2 5.816 5.973 10.255 11.531 13.604 16.395.072.107.133.201.205.304 2.514 10.468 5.809 18.028 8.479 22.968l-7.883-7.739c-5.551-7.202-11.319-17.363-14.189-30.728zm-2.206.535a78.655 78.655 0 008.668 22.615l-67.422-66.135c26.86 12.974 45.336 26.73 57.941 39.009.24 1.512.49 3.023.813 4.511zm17.922-.072c6.473 9.827 9.294 19.482 10.426 27.281a64.338 64.338 0 00-.608 7.37c-1.853-5.206-5.046-12.15-10.529-20.219a116.91 116.91 0 01-1.085-4.959c-.832-4.275-1.527-9.169-1.982-14.64 1.332 1.685 2.612 3.398 3.778 5.167zm25.01 9.473a121.735 121.735 0 01-1.086 4.959c-5.487 8.069-8.676 15.013-10.529 20.219a65.691 65.691 0 00-.607-7.34c1.131-7.821 3.956-17.511 10.456-27.356 1.155-1.758 2.427-3.456 3.748-5.123-.456 5.472-1.151 10.366-1.982 14.641zm-11.71 30.649c1.173-4.491 3.79-11.941 9.413-21.046-3.14 11.049-7.085 18.324-9.496 22.087.03-.331.057-.672.083-1.041zm-3.387 0c.023.369.053.707.08 1.037-2.407-3.763-6.352-11.034-9.492-22.079 5.623 9.101 8.235 16.551 9.412 21.042zm29.704-44.405c-5.582 5.563-9.986 10.802-13.438 15.511.095-.448.198-.874.285-1.333.961-4.906 1.739-10.631 2.187-17.102 3.535-4.168 7.587-8.064 12.166-11.66a88.704 88.704 0 01-1.2 14.584zm-12.344-4.818a76.96 76.96 0 00-5.957 7.856 70.26 70.26 0 00-8.578 18.206V6.736c13.05 38.322 15.754 67.957 14.535 89.266zM319.135 6.736v115.332c-1.746-5.718-4.427-11.904-8.581-18.21a77.065 77.065 0 00-5.953-7.856c-1.219-21.309 1.484-50.944 14.534-89.266zm-28.078 79.5c4.575 3.6 8.63 7.492 12.165 11.66.448 6.467 1.227 12.196 2.187 17.102.088.459.19.885.285 1.333-3.455-4.709-7.856-9.948-13.437-15.511a88.594 88.594 0 01-1.2-14.584zM414.18 57.717a1.15 1.15 0 00-1.033-.315c-13.422 2.711-25.447 6.276-36.116 10.64 1.948-6.831 6.751-27.175.406-43.711a1.141 1.141 0 00-.657-.657 1.143 1.143 0 00-.926.057c-.778.406-18.4 9.845-29.138 29.787-4.917-16.714-13.395-34.42-25.5-53.036-.418-.641-1.481-.641-1.898 0-12.105 18.617-20.584 36.322-25.505 53.036-10.733-19.942-28.355-29.38-29.133-29.787a1.145 1.145 0 00-.927-.057c-.3.114-.539.353-.657.657-6.344 16.536-1.545 36.88.407 43.71-10.67-4.362-22.695-7.928-36.121-10.639a1.15 1.15 0 00-1.029.315 1.15 1.15 0 00-.3 1.044c8.897 40.062 25.064 67.738 48.051 82.257 14.211 8.976 27.786 10.822 36.549 10.822 3.934 0 6.865-.369 8.482-.634V400h2.263V151.206c1.618.265 4.545.634 8.483.634 8.763 0 22.337-1.846 36.549-10.822 22.987-14.519 39.154-42.195 48.046-82.257.084-.38-.026-.77-.296-1.044zM113.949 394.95c-.988-9.302-4.663-28.128-18.192-51.862-10-17.55-24.501-30.019-41.922-36.052-14.158-4.906-29.988-5.563-46.125-2.005-.52.034-1.013.08-1.477.129 6.736-4.222 17.576-6.743 29.305-6.743 1.424 0 2.867.038 4.313.114 23.188 1.215 44.151 11.58 57.52 28.431 21.445 27.034 18.966 55.838 16.578 67.988zm-44.432-39.26c-5.202-10.244-10.586-20.838-20.53-30.869-10.184-10.279-19.47-15.412-27.107-17.854 7.64.946 16.897 3.52 26.81 9.485 22.258 13.381 32.153 33.747 40.886 51.714 5.426 11.167 10.647 21.772 18.203 29.233-22.805-11.307-30.334-26.108-38.262-41.709zm43.232 44.021c-9.557-7.119-15.283-18.756-21.814-32.205-8.824-18.157-18.825-38.74-41.462-52.349-12.8-7.696-24.574-9.894-33.269-10.145 32.908-4.454 61.503 9.458 78.244 38.824 16.395 28.773 18.168 50.176 18.327 55.883a.05.05 0 00-.026-.008zm5.042-22.402c-.216-13.16-3.63-32.824-18.647-51.759-13.771-17.352-35.338-28.029-59.175-29.282-16.767-.877-32.114 3.143-39.093 10.255-.372.384-.43.976-.133 1.42.296.448.866.627 1.363.425.194-.075 20.006-7.449 45.275 18.044 9.69 9.78 14.99 20.214 20.116 30.307 8.24 16.22 16.057 31.594 40.418 43.281h7.199c.942-3.375 2.859-11.653 2.677-22.691zm391.188-67.338c-7.23 13.692-9.5 26.521-11.695 38.93-.581 3.277-1.166 6.523-1.823 9.754a92.77 92.77 0 00-16.915 18.73c.516-2.961.995-5.972 1.481-9.017 3.432-21.662 7.328-46.213 26.438-67.377 8.896-9.857 18.229-15.628 26.176-19.011-7.453 4.905-15.936 13.361-23.662 27.991zm-35.289 87.272c1.545-4.29 2.715-8.884 3.698-13.676 4.101-6.93 9.697-14.337 17.261-21.172-1.527 6.649-3.562 13.24-6.899 19.869-5.984 5.529-10.598 10.658-14.06 14.979zm45.286-50.59c21.593-9.599 47.283-9.01 70.475 1.606 13.57 6.216 24.775 15.423 29.597 24.008a32.865 32.865 0 00-1.454-.945c-13.943-11.801-29.764-19.281-46.122-21.726-19.994-2.992-40.411 1.754-59.046 13.722-7.97 5.118-14.732 10.259-20.439 15.165 2.586-6.182 4.238-12.348 5.532-18.571 5.973-4.951 13.043-9.519 21.457-13.259z" fill="#fff"/></svg>