<svg width="15" height="16" fill="none" xmlns="http://www.w3.org/2000/svg"><path fill-rule="evenodd" clip-rule="evenodd" d="M4 0a.8.8 0 01.8.8v.8h4.8V.8a.8.8 0 111.6 0v.8h.8A2.4 2.4 0 0114.4 4v9.6A2.4 2.4 0 0112 16H2.4A2.4 2.4 0 010 13.6V4a2.4 2.4 0 012.4-2.4h.8V.8A.8.8 0 014 0zm-.8 3.2h-.8a.8.8 0 00-.8.8v1.6h11.2V4a.8.8 0 00-.8-.8h-.8V4a.8.8 0 01-1.6 0v-.8H4.8V4a.8.8 0 11-1.6 0v-.8zm9.6 4H1.6v6.4a.8.8 0 00.8.8H12a.8.8 0 00.8-.8V7.2z" fill="#fff"/><path fill-rule="evenodd" clip-rule="evenodd" d="M3.2 9.6a.8.8 0 01.8-.8h6.4a.8.8 0 010 1.6H4a.8.8 0 01-.8-.8zm0 2.4a.8.8 0 01.8-.8h2.4a.8.8 0 010 1.6H4a.8.8 0 01-.8-.8z" fill="#fff"/></svg>