<svg width="253" height="36" fill="none" xmlns="http://www.w3.org/2000/svg"><path d="M30.095.004c-3.053-.068-5.923.78-8.322 2.453C19.47.848 16.703 0 13.738 0c-3.7 0-7.146 1.382-9.702 3.892C1.433 6.446 0 9.942 0 13.738v16.026c0 1.617.611 3.095 1.722 4.16 1.056 1.014 2.468 1.565 4.001 1.565.089 0 .176-.002.264-.006 3.063-.125 5.461-2.675 5.461-5.807V13.738c0-1.09.618-1.934 1.612-2.203a1.707 1.707 0 001.25-1.651 1.71 1.71 0 00-.676-1.368 1.705 1.705 0 00-1.494-.293c-2.468.672-4.127 2.888-4.127 5.515v16.026c0 .699-.234 1.288-.678 1.704-.448.42-1.092.626-1.814.58-1.17-.076-2.087-1.088-2.087-2.303V13.84c0-2.703 1.024-5.268 2.885-7.226 1.866-1.963 4.37-3.092 7.047-3.175 2.097-.064 4.082.427 5.777 1.428-2.014 2.429-3.116 5.55-3.116 8.87v16.026c0 1.62.591 3.09 1.665 4.14 1.08 1.057 2.572 1.616 4.208 1.582 3.073-.067 5.574-2.675 5.574-5.811V13.738c0-3.326-1.095-6.453-3.098-8.88C26.07 3.86 28.055 3.37 30.15 3.44c2.676.087 5.175 1.216 7.039 3.179a10.442 10.442 0 012.879 7.22v15.925c0 2.18-1.907 2.29-2.29 2.29-.382 0-2.29-.11-2.29-2.29V13.738c0-2.63-1.66-4.845-4.13-5.516a1.705 1.705 0 00-1.49.294 1.704 1.704 0 00-.676 1.364c0 .78.519 1.458 1.26 1.653.989.26 1.603 1.104 1.603 2.205v15.937c0 3.136 2.5 5.744 5.573 5.811 1.638.042 3.13-.525 4.209-1.581 1.074-1.05 1.666-2.52 1.666-4.14V13.912c0-7.507-6.015-13.746-13.407-13.91zm139.162 30.961c0-2.878 2.127-5.033 5.02-5.033 2.252 0 4.046 1.363 4.659 3.38h-1.683c-.515-1.142-1.613-1.879-2.989-1.879-1.99 0-3.422 1.502-3.422 3.532 0 2.03 1.432 3.533 3.422 3.533 1.376 0 2.474-.737 2.989-1.877h1.683c-.613 2.016-2.407 3.379-4.659 3.379-2.893 0-5.02-2.156-5.02-5.035zm-3.368 4.868l-4.116-4.645v4.645h-1.571v-9.735h1.571v4.45l3.936-4.45h1.975l-4.2 4.743 4.394 4.992h-1.989zM152.664 27.6v2.517h4.437v1.502h-4.437v2.712h4.783v1.502h-6.355v-9.735h6.355V27.6h-4.783zm-4.896-1.502v9.735h-1.572V27.6h-3.185l-.848 5.257c-.376 2.28-1.21 3.143-2.517 3.143-.25 0-.626-.042-.863-.083v-1.42c.154.014.404.042.557.042.723 0 1.043-.402 1.279-1.822l1.071-6.619h6.078zm-11.586 9.735h-1.572V27.6h-4.992v8.233h-1.571v-9.735h8.135v9.735zm-11.46-9.735v9.735h-1.572v-7.607l-3.004 4.534h-.152l-2.991-4.534v7.607h-1.571v-9.735h1.849l2.796 4.2 2.795-4.2h1.85zm-12.114 4.867C112.593 33.83 110.41 36 107.56 36c-2.852 0-5.048-2.17-5.048-5.035s2.196-5.033 5.048-5.033c2.85 0 5.033 2.168 5.048 5.033zm-8.511 0c0 2.03 1.487 3.533 3.463 3.533 1.961 0 3.448-1.503 3.448-3.533 0-2.03-1.487-3.532-3.448-3.532-1.976 0-3.463 1.502-3.463 3.532zm-4.91 4.868l-4.117-4.645v4.645h-1.572v-9.735h1.572v4.45l3.935-4.45h1.975l-4.2 4.743 4.395 4.992h-1.988zM83.012 33.22h-4.228l-.987 2.614h-1.669l3.769-9.735h2.002l3.769 9.735h-1.67l-.986-2.614zm-.57-1.489l-1.545-4.074-1.543 4.074h3.087zm-8.916 4.103h-1.572V27.6H66.96v8.233h-1.57v-9.735h8.135v9.735zm-20.57-4.868c0-2.878 2.128-5.033 5.02-5.033 2.254 0 4.047 1.363 4.66 3.38h-1.683c-.515-1.142-1.613-1.879-2.99-1.879-1.99 0-3.421 1.502-3.421 3.532 0 2.03 1.431 3.533 3.422 3.533 1.376 0 2.474-.737 2.989-1.877h1.683C62.023 34.636 60.23 36 57.976 36c-2.892 0-5.02-2.156-5.02-5.035zM246.89 15.517h-7.898l-1.675 4.604h-4.214L240.414.584h5.052l7.312 19.537h-4.242l-1.647-4.604zm-1.395-3.797l-2.568-7.089-2.567 7.09h5.135zM228.108.584V20.12h-3.991V4.381h-5.275l-1.562 9.74c-.726 4.549-2.652 6.335-5.443 6.335-.614 0-1.368-.084-1.954-.195v-3.6a7.83 7.83 0 001.116.083c1.368 0 1.982-.642 2.344-3.014L215.465.583h12.643zM196.376 4.38v3.935h8.374v3.797h-8.374v4.214h9.127v3.795h-13.118V.584h13.118V4.38h-9.127zm-8.985 0h-5.637v15.741h-3.991V4.381h-5.611V.583h15.239V4.38zM156.722.584V20.12h-3.992v-6.726h-2.484l-4.8 6.726h-4.884l5.246-7.116c-2.595-.81-4.159-2.904-4.159-6.03 0-3.935 2.457-6.391 6.671-6.391h8.402zm-3.992 9.182V4.38h-3.991c-2.066 0-3.07 1.06-3.07 2.707 0 1.646 1.004 2.68 3.07 2.68h3.991zM135.707.584V20.12h-3.991v-8.177l.363-5.5-8.512 13.677h-4.578V.584h3.992v8.178l-.364 5.498L131.13.584h4.577zM114.135 4.38h-8.374v15.741h-3.991V.584h12.365V4.38zM90.888 15.516h-7.9l-1.674 4.605H77.1L84.412.584h5.052l7.313 19.537h-4.243l-1.646-4.604zm-1.395-3.796l-2.569-7.089-2.568 7.09h5.137zM72.135.584V20.12h-3.992V6.111l-5.442 8.233h-.364L56.923 6.11v14.011h-3.99V.584h4.576l5.024 7.508L67.53.584h4.606zM19.461 13.738c0-2.489.809-4.82 2.29-6.633 1.48 1.813 2.29 4.144 2.29 6.633v16.026c0 2.18-1.908 2.29-2.29 2.29-2.18 0-2.29-1.907-2.29-2.29V13.738z" fill="#000"/></svg>