<svg width="40" height="50" fill="none" xmlns="http://www.w3.org/2000/svg"><path d="M19.995 0C8.956 0 0 8.956 0 19.995a20.277 20.277 0 001.289 6.925l-.052-.013C3.358 33.533 13.837 43.843 19.982 50h.013v-.013c5.024-5.025 12.926-13.083 16.818-19.175.872-1.38 1.562-2.694 1.953-3.905l-.065.013a19.969 19.969 0 001.289-6.925C39.99 8.956 31.047 0 19.995 0zm0 12.302c4.243 0 7.693 3.45 7.693 7.693 0 4.243-3.45 7.693-7.693 7.693-4.244-.013-7.68-3.45-7.68-7.693-.013-4.244 3.436-7.68 7.68-7.694z" fill="#489192"/></svg>