<svg width="15" height="16" fill="none" xmlns="http://www.w3.org/2000/svg"><path fill-rule="evenodd" clip-rule="evenodd" d="M7.14 0a7.14 7.14 0 017.141 7.14c0 2.44-1.33 4.435-2.73 5.867a16.214 16.214 0 01-2.283 1.918l-.337.23a16.64 16.64 0 01-.16.106l-.298.19-.267.162-.33.192c-.46.26-1.011.26-1.471 0l-.33-.191-.412-.255-.153-.098-.326-.218a16.372 16.372 0 01-2.453-2.036C1.33 11.575 0 9.58 0 7.141A7.14 7.14 0 017.14 0zm0 1.587A5.554 5.554 0 001.588 7.14c0 1.842 1.009 3.46 2.278 4.757a14.315 14.315 0 001.763 1.516l.363.258c.117.081.23.157.339.229l.309.197.272.166.23.134.36-.213.292-.182c.154-.098.321-.21.498-.33l.363-.26c.56-.41 1.179-.919 1.762-1.515 1.27-1.297 2.278-2.915 2.278-4.757a5.554 5.554 0 00-5.553-5.554zm0 2.38a3.174 3.174 0 110 6.347 3.174 3.174 0 010-6.347zm0 1.587a1.587 1.587 0 100 3.173 1.587 1.587 0 000-3.173z" fill="#fff"/></svg>