<svg width="105" height="200" fill="none" xmlns="http://www.w3.org/2000/svg"><path d="M92.412 129.996c-.333-.885-.52-1.466-.742-2.016-1.4-3.478-2.82-6.95-4.22-10.428-.036-.055-.119-.086-.132-.093.024 4.693 1.567 8.828 5.094 12.537zM27.148 94.867c2.138-.489 4.124-1.065 6.14-1.371 2.028-.3 4.057-.074 6.077.518-1.048-1.281-2.347-2.099-3.828-2.632-1.73-.627-3.398-.425-4.88.68-1.171.86-2.276 1.81-3.509 2.805zm60.277 88.004c-1.514-1.702-4.047-2.37-5.715-1.526-2.027 1.026-3.31 2.87-4.62 4.699 3.575-.639 6.427-3.301 10.335-3.173zm-23.361-62.534c.115-.491.197-.984.375-1.439.564-1.415.989-2.91 1.786-4.173 1.957-3.128 4.438-3.976 7.97-2.967.522.149 1.036.311 1.679.513-.948-2.186-3.058-3.354-5.126-2.723-1.574.477-3.07 1.286-4.562 2.029-.472.234-.906.693-1.177 1.162-1.413 2.36-1.607 4.918-.945 7.598zm39.056 78.387c.15-.082.279-.16.42-.23-.252-.703-.416-1.44-.778-2.071-.835-1.446-1.698-2.873-2.67-4.228-3.49-4.854-7-9.702-10.56-14.494-2.832-3.831-5.76-7.583-8.634-11.371-.425-.55-.835-1.124-1.24-1.679a2.606 2.606 0 00-.273.18c1.15 1.661 2.245 3.358 3.444 4.962 2.809 3.784 5.789 7.448 8.46 11.322 3.358 4.878 6.47 9.919 9.724 14.889.617.948 1.403 1.807 2.107 2.72zm-69.188-67.366c2.46 1.234 4.683 2.349 6.887 3.469 3.12 1.581 6.408 2.517 9.877 2.966 1.65.209 3.299.569 4.934.922.646.137 1.25.435 2.07.739-1.205-1.507-2.626-2.26-4.137-2.828-1.087-.425-2.173-.882-3.293-1.191a2464.25 2464.25 0 00-15.74-4.206c-.084-.031-.186.029-.598.129zm29.987-50.74c.13.007.273.022.404.03a8653.712 8653.712 0 013.515-22.013c-5.551 6.46-5.393 14.103-3.92 21.982zM44.372 24.07a1.207 1.207 0 00-.21-.104c-.193.277-.42.551-.582.863-2.6 4.767-5.251 9.504-7.73 14.324-.914 1.787-1.416 3.795-2.074 5.696-.12.353-.079.749-.127 1.33 1.796-2.41 3.513-4.595 5.104-6.853 1.685-2.423 3.15-4.99 3.901-7.868.64-2.452 1.156-4.925 1.718-7.388zm39.265 148.707c-.139-.198-.257-.402-.403-.588-2.511-3.071-4.708-6.367-6.328-9.989-.947-2.101-2.407-3.721-4.167-5.142-.637-.504-1.189-1.126-1.855-1.579a4.92 4.92 0 00-1.762-.746c-2.53-.498-5.07-.95-7.616-1.39-.337-.059-.687-.008-1.303.008 1.244.854 2.156 1.583 3.163 2.147 4.136 2.303 7.258 5.779 10.466 9.134 2.942 3.085 5.852 6.167 9.805 8.145zm-6.401-3.493c-.36-.343-.704-.71-1.07-1.04-1.178-1.086-2.48-2.074-3.54-3.277-2.777-3.107-5.705-6.014-9.175-8.389-2.42-1.651-4.916-3.143-7.633-4.019-3.686-1.182-7.333-2.375-10.863-3.974-.523-.234-1.04-.448-1.66.275.166.501.222 1.193.566 1.678.995 1.403 1.968 2.843 3.178 4.049 5.884 5.88 12.181 11.189 20.146 14.165 2.31.878 4.644 1.364 7.082 1.437.38.016.773-.112 1.216-.177-1.342-.656-2.541-1.18-3.667-1.83-.843-.469-1.57-1.109-2.376-1.642-1.945-1.275-3.647-2.916-5.846-3.781-4.829-1.892-8.712-5.131-12.352-8.702-.216-.21-.363-.48-.545-.721 1.137.573 2.109 1.286 3.016 2.08 3.197 2.791 6.705 5.071 10.486 6.966 2.027 1.019 3.94 2.292 5.75 3.658 2.192 1.637 4.543 2.825 7.287 3.244zM22.258 10.948c1.304 3.76 2.177 7.508 2.805 11.3.658 3.826 1.159 7.663 1.725 11.504.608-1.287.943-2.598 1.278-3.908.807-3.268 1.205-6.586.827-9.964-.416-3.838-1.625-7.442-3.431-10.8-1.194-2.227-2.714-4.27-4.208-6.298-.52-.706-1.324-1.271-2.11-1.692-1.181-.614-2.227-.204-2.716 1.051a6.292 6.292 0 00-.438 2.366c.077 2.41.218 4.823.413 7.233.1 1.258.338 2.51.564 3.755.83 4.467 2.22 8.75 4.71 12.587 1.044 1.582 2.264 3.064 3.409 4.586.194.248.423.465.645.694l.282-.108c-.489-3.712-.892-7.425-1.513-11.112-.621-3.687-1.46-7.347-2.242-11.194zm13.04 70.682c.069-.062.143-.103.212-.165-.3-.561-.578-1.161-.89-1.73-1.074-1.938-2.045-3.968-3.275-5.81-3.348-5.042-8.012-8.563-13.474-11.024-2.824-1.275-5.722-2.39-8.608-3.5-1.317-.523-2.694-.913-4.076-1.238-.717-.16-1.509-.161-2.247-.08-1.604.205-2.38 1.463-1.882 2.967.174.574.482 1.123.798 1.627 1.822 2.775 4.267 4.998 6.62 7.32 5.03 4.964 11.133 7.863 17.915 9.498 2.071.503 4.107 1.155 6.155 1.729.29.082.603.094.902.132-.381-.626-.836-1.006-1.311-1.382-3.006-2.36-6.265-4.343-9.783-5.817-5.363-2.252-10.053-5.466-14.116-9.62-.418-.444-.87-.858-1.304-1.277.077-.074.14-.155.204-.236.92.716 1.848 1.387 2.718 2.16a48.224 48.224 0 0012.77 8.15c4.186 1.809 7.915 4.35 11.384 7.282.424.346.863.667 1.287 1.014zM24.543 54.353c.107-.04.227-.072.334-.111-.145-.743-.31-1.48-.448-2.235-.377-1.976-.695-3.967-1.106-5.944-.387-1.93-.55-3.984-1.36-5.736-1.446-3.166-3.063-6.296-5.037-9.16-2.346-3.415-5.055-6.584-7.765-9.72-1.121-1.272-2.562-2.34-4.023-3.2-2.03-1.19-3.48-.253-3.558 2.101-.017.497-.029 1.014.092 1.506.278 1.242.556 2.484.97 3.668 1.923 5.639 4.48 10.968 7.19 16.266 3.226 6.306 8.127 10.79 14.323 13.997.038.021.147-.05.174-.069-.963-1.604-2.069-3.137-2.85-4.822-1.509-3.202-2.78-6.521-4.281-9.736-1.28-2.75-2.648-5.465-4.18-8.073-1.732-2.96-3.682-5.776-5.418-8.467-.121-.053.015-.025.114.066.418.444.844.875 1.235 1.338 4.408 5.163 7.53 11.122 10.266 17.28.984 2.241 1.82 4.532 2.859 6.736.708 1.49 1.638 2.89 2.469 4.315zm45.422 99.093c-.013-.328.008-.452-.034-.526-1.8-2.61-3.571-5.239-5.44-7.787-1.076-1.467-2.483-2.566-4.137-3.47-2.807-1.537-5.728-2.614-8.899-2.908-4.511-.425-8.724-1.776-12.676-3.99a45.822 45.822 0 00-3.791-1.936 131.437 131.437 0 00-6.293-2.687c-.87-.333-1.82-.442-2.673-.63-.699 1.269-.671 1.572-.006 2.699 2.022 3.364 4.899 5.92 7.837 8.428 4.283 3.655 9.102 6.353 14.405 8.3 3.728 1.375 7.446 2.677 11.412 3.142.696.08 1.383.292 2.077.405 1.933.305 3.847.582 5.787.874a2.051 2.051 0 00-.733-.862 24.536 24.536 0 00-8.095-3.745 49.061 49.061 0 01-12.988-5.437c-2.268-1.36-4.507-2.771-6.747-4.149-.297-.188-.577-.434-.858-.647a2.43 2.43 0 01.186-.265c1.864 1.009 3.779 1.929 5.584 3.039 4.778 2.944 9.811 5.242 15.226 6.763 2.556.715 4.92 2.114 7.33 3.286 1.157.566 2.237 1.325 3.526 2.103zM38.374 63.064c.136.028.284.063.42.09.15-.2.292-.388.43-.596 1.638-2.4 3.243-4.8 4.887-7.18 1.443-2.09 2.974-4.129 4.366-6.248a30.188 30.188 0 003.822-8.285c.809-2.862.849-5.795.752-8.724-.105-3.033-.392-6.071-.692-9.117-.134-1.462-.505-2.893-1.373-4.137-.728-1.046-1.39-1.158-2.446-.467a5.283 5.283 0 00-2.17 2.853c-.711 2.225-1.553 4.442-1.947 6.732-.938 5.54-3.386 10.277-6.957 14.534-1.102 1.324-2.061 2.78-2.924 4.276-1.264 2.16-1.314 4.496-.814 6.93.625 3.098 2.284 5.745 3.346 8.64.011.04.169.03.364.04.114-.576.222-1.172.323-1.756.661-3.775 1.657-7.457 3.076-10.996 2.437-6.061 5.36-11.943 6.54-18.458-.015 2.627-.618 5.133-1.512 7.557-1.294 3.527-2.832 6.981-4.069 10.525-1.137 3.314-2.075 6.692-2.988 10.084-.314 1.188-.294 2.467-.434 3.703zm47.123 95.885c.207-.184.337-.262.422-.381.326-.505.67-1.015.953-1.562 2.661-5.019 5.067-10.151 6.13-15.789.363-1.885.525-3.802.21-5.741-.44-2.687-1.675-4.988-3.22-7.131-1.13-1.581-2.198-3.178-2.625-5.097-.316-1.382-.466-2.786-.722-4.184-.314-1.736-.575-3.475-1.588-5.022-.91-1.404-2.6-1.282-3.377-.024-.56.91-1.108 1.861-1.41 2.852-.692 2.338-1.411 4.693-1.811 7.081a197.818 197.818 0 00-1.655 12.831c-.261 2.789.075 5.568.913 8.265a33.48 33.48 0 003.287 7.338c1.213 2.018 2.174 4.211 3.32 6.462.002-2.399-.614-4.545-1.32-6.625-1.18-3.419-1.63-6.906-1.322-10.478a58.09 58.09 0 011.409-8.547c.785-3.348 1.158-6.799 1.705-10.2.067-.35.127-.687.206-1.03.31.517.495 1.013.44 1.488-.411 3.226-.642 6.489-1.396 9.635-.874 3.736-1.493 7.467-1.482 11.275 0 1.605.243 3.232.579 4.811.46 2.125 1.14 4.19 1.666 6.318.287 1.112.453 2.255.688 3.455zM64.535 55.123c.108.046.204.085.313.13a79.75 79.75 0 01-.865 1.731c-1.849 3.612-3.857 7.15-5.548 10.837-2.385 5.212-3.8 10.73-3.947 16.508-.132 4.875-.688 9.723-1.523 14.53-.1.583-.136 1.171-.237 2.076 1.502-1.87 2.772-3.485 4.105-5.064 2.276-2.656 3.919-5.678 5.266-8.888.848-1.994 1.177-4.084.917-6.262a168.403 168.403 0 01-.662-6.042c-.454-4.824.247-9.37 2.942-13.54 1.678-2.614 3.14-5.351 3.979-8.382.42-1.547.27-2.952-.986-4.049-.983-.838-2.36-.704-3.977.255-1.854 1.109-3.42 2.536-4.734 4.227a57.867 57.867 0 00-8.229 14.223c-2.576 6.42-3.344 13.038-1.714 19.859.7 2.905 1.322 5.832 1.944 8.758.21.95.329 1.914.5 2.874.389-.586.587-1.164.643-1.757.274-2.579.581-5.156.718-7.73.222-4.095.105-8.217 1.012-12.272 1.818-8.057 5.565-15.22 10.083-22.022zm-49.067 46.01c.668.537 1.335 1.075 2.01 1.6 5.713 4.481 11.497 8.868 18.083 12.011 4.227 2.001 8.554 3.739 12.84 5.606.632.28 1.237.663 1.86.988l3.585 1.767c.071-.094.122-.183.186-.265-2.303-3.053-4.41-6.297-6.978-9.097-3.98-4.325-8.69-7.738-14.2-9.972-5.59-2.265-11.164-4.621-16.77-6.861-1.496-.594-3.078-1.068-4.667-1.326-3.094-.485-4.495 1.24-3.571 4.257.11.334.207.694.405.994.89 1.409 1.718 2.867 2.725 4.192 3.81 4.971 8.687 8.766 13.898 12.13 5.393 3.485 11.256 5.924 17.667 6.652 3.557.415 7.177.309 10.764.436.053-.003.106-.124.15-.2-2.715-1.872-5.659-3.318-8.715-4.542-6.346-2.565-12.617-5.29-18.283-9.238-3.92-2.736-7.728-5.577-10.99-9.132zm22.289-25.4c-.057-.37-.093-.745-.142-1.128-.232-2.11-.828-4.263-.643-6.336.307-3.455-.93-6.366-2.339-9.274-2.61-5.443-2.998-11.023-1.08-16.741a26.18 26.18 0 011.787-4.206c2.426-4.58 4.871-9.166 7.46-13.652 1.135-1.964 2.643-3.729 4.017-5.554.292-.39.706-.725 1.122-1.008 1.634-1.135 2.98-.865 3.85.956.598 1.274 1.177 2.639 1.342 4.018.431 3.577.75 7.174.878 10.78.158 5.277-1.067 10.263-3.913 14.754-1.78 2.79-3.679 5.495-5.646 8.144-1.86 2.49-3.65 5.006-5.069 7.785-1.236 2.462-1.53 5.046-1.18 7.682.313 2.41.988 4.777 1.293 7.2.589 4.648 2.042 9.086 3.415 13.545.986 3.17 2.612 6.053 4.28 8.891a700.032 700.032 0 004.973 8.362c.327.544.721 1.059 1.076 1.584a4.03 4.03 0 01.349-.136c-.154-.494-.227-1.01-.44-1.488-1.34-2.969-1.619-6.138-1.956-9.323-.296-2.671-.918-5.277-1.412-7.928-.623-3.333-1.43-6.638-1.88-10.007-.629-4.552.167-9.026 1.633-13.35 2.161-6.371 5.432-12.153 9.746-17.316 1.56-1.887 3.405-3.474 5.775-4.336 2.705-.973 4.94.385 5.232 3.24.09.896.027 1.823-.087 2.72-.13.956-.37 1.899-.636 2.827-1.112 3.767-1.784 7.62-2.32 11.5-.517 3.757-.98 7.51-1.677 11.23-1.282 6.779-4.061 12.878-8.665 18.076-.85.946-1.694 1.912-2.386 2.965-.715 1.091-1.388 2.257-1.776 3.485-.258.798-.144 1.827.1 2.66.863 2.83 1.76 5.629 2.838 8.38.544 1.395 1.524 2.62 2.282 3.936 2.05 3.549 4.08 7.103 6.248 10.889-.27-2.133-.527-4.055-.764-5.983-.2-1.466-.406-2.92-.58-4.372a12.107 12.107 0 01-.062-1.675c.121-5.556 2.98-7.994 8.488-9.004 2.14-.404 4.597 1.184 5.426 3.166.11.249.057.574.085 1.08-.598-.075-1.078-.149-1.545-.216-1.163-.148-2.311-.321-3.471-.416-1.415-.091-2.551.504-3.54 1.487-1.604 1.608-2.452 3.603-2.91 5.771-.72 3.436-.68 6.873-.062 10.304.51 2.828 1.621 5.43 2.8 8.036 1.372 3.057 2.705 6.124 3.837 9.278 1.638 4.612 3.852 8.931 6.246 13.169 2.3 4.081 4.963 7.883 7.94 11.494.299.358.638.706 1.12.951-.094-.274-.162-.567-.316-.825-1.605-2.801-2.238-5.854-2.332-9.05-.032-1.202-.4-2.259-.959-3.308-1.998-3.755-4.084-7.477-5.853-11.337-1.609-3.496-2.249-7.296-1.918-11.142a171.31 171.31 0 011.658-12.982c.458-2.692 1.33-5.314 2.138-7.939.293-.946.853-1.857 1.464-2.653.953-1.24 2.763-1.834 4.387-.322 1.351 1.253 2.106 2.838 2.812 4.479a660.502 660.502 0 013.573 8.567c2.062 5.077 3.042 10.305 1.99 15.78-.537 2.799-1.58 5.424-2.656 8.047-1.375 3.345-2.889 6.61-4.969 9.599-.61.882-.772 1.835-.77 2.884.004 3.703 1.182 7.069 2.878 10.295.534 1.034.972 2.116 1.533 3.132 2.516 4.612 5.976 8.553 8.938 12.831 1.758 2.535 3.427 5.138 5.096 7.74.62 1 .927 2.106.58 3.292-1.2.675-1.973.027-2.582-.73a77.357 77.357 0 01-3.37-4.683c-1.525-2.266-3.083-4.534-4.425-6.914-1.753-3.158-5.246-4.296-8.645-3.318-1.786.522-3.528 1.291-5.22 2.088-1.7.81-3.43.943-5.476.893.286-.494.369-.784.564-.975 1.024-1.132 2.097-2.202 3.11-3.341 1.742-1.967 3.824-2.827 6.409-2.044 1.118.342 2.184.805 3.278 1.217.883.341 1.766.682 2.765 1.056-.038-.343-.008-.512-.073-.634-2.668-4.378-6.174-7.889-10.607-10.466-1.468-.847-3.075-1.015-4.718-.916-2.773.156-5.396-.209-8.034-1.192-5.288-1.972-10.096-4.748-14.372-8.416-3.007-2.564-6.103-5.061-8.53-8.219-.59-.763-1.042-1.615-1.502-2.455-.447-.833-.589-1.726-.008-2.674-.43-.249-.795-.493-1.194-.707-5.805-3.182-10.867-7.271-15.026-12.426-.701-.861-1.283-1.839-1.8-2.813-1-1.862-.217-3.335 1.874-3.277 1.706.056 3.436.362 5.107.769 4.973 1.232 9.92 2.568 14.877 3.859.74.208 1.459.454 2.194.641 4.776 1.136 8.739 3.711 12.377 6.876 1.592 1.392 3.183 2.784 4.6 4.362.927 1.025 1.547 2.346 2.279 3.563 1.215 1.986 2.368 4.02 3.626 5.962.509.784 1.278 1.38 2.118 1.882-.938-2.349-1.85-4.684-2.788-7.033-.927-2.309-1.835-4.624-2.802-6.922-1.413-3.367-2.724-6.794-4.353-10.049-1.063-2.134-2.829-3.779-4.97-4.981-.822-.475-1.532-1.172-2.367-1.654-.633-.366-1.365-.704-2.086-.799-1.404-.169-2.845-.274-4.245-.187-9.641.6-18.376-2.094-26.39-7.295-5.354-3.464-10.245-7.47-14.049-12.656-1.21-1.645-2.258-3.365-2.838-5.34-.091-.339-.247-.682-.285-1.025-.331-2.32 1.044-3.942 3.42-4.024 1.863-.073 3.619.451 5.332 1.136 1.976.786 3.903 1.713 5.864 2.524 2.536 1.042 5.094 2.046 7.638 3.075 2.301.923 4.639 1.783 6.914 2.809 3.94 1.768 7.377 4.344 10.251 7.49 2.825 3.084 5.294 6.52 7.808 9.88 1.412 1.88 2.824 3.641 5.068 4.633 1.033.461 1.84 1.4 2.945 1.971-.991-1.789-1.936-3.602-2.947-5.385-.913-1.575-1.777-3.205-2.868-4.646-3.119-4.065-5.667-8.476-8.187-12.905-1.935-3.398-4.391-6.302-7.259-8.904-1.302-1.191-2.878-1.881-4.663-2.033-2.56-.211-5.071-.04-7.53.771-.903.307-1.782.661-2.766 1.022-.276-.953.24-1.381.643-1.757 1.159-1.072 2.294-2.19 3.56-3.098 1.765-1.245 3.724-1.6 5.785-.698 1.638.726 3.104 1.606 4.196 3.132.87 1.212 2.061 2.187 3.322 3.1-.312-.686-.691-1.344-.93-2.04-.506-1.491-.984-3-1.417-4.501-.363-1.24-.958-2.344-1.843-3.294-.96-1.027-1.854-2.135-2.848-3.131-.37-.383-.945-.614-1.46-.775-2.911-.887-5.847-1.704-8.752-2.604-2.52-.779-5.076-1.494-7.503-2.49C11.4 75.013 6.04 69.688 1.364 63.559c-.51-.666-.879-1.488-1.158-2.29-.702-2.028.444-3.867 2.584-4.067 1.094-.112 2.263-.062 3.3.215 1.863.485 3.682 1.163 5.487 1.834 1.857.7 3.66 1.521 5.516 2.221 4.411 1.652 8.13 4.356 11.533 7.52 2.285 2.148 3.951 4.697 5.141 7.632 1.266 3.096 2.726 6.119 5.1 8.553.166.18.373.317.846.725-.166-.94-.213-1.559-.406-2.16-1.336-4.32-3.013-8.514-5.113-12.532-1.074-2.056-2.03-4.196-3.07-6.283-.409-.81-.858-1.61-1.356-2.354-.756-1.146-1.519-2.28-2.405-3.315-.514-.6-1.248-1.024-1.921-1.464a161.117 161.117 0 00-5.084-3.087c-4.68-2.735-8.149-6.63-10.764-11.334-3.259-5.868-5.972-11.98-8.046-18.38a16.696 16.696 0 01-.811-4.76C.707 17.36 2.8 16.102 5.4 17.297c.586.271 1.16.62 1.686 1.025.794.61 1.641 1.218 2.303 1.971 2.123 2.46 4.288 4.875 6.205 7.485 1.928 2.651 3.608 5.497 5.33 8.299 2.08 3.38 3.285 7.05 3.448 11.063.11 3.053.609 6.045 1.798 8.894.64 1.552 1.575 2.97 3.11 4.313-.42-1.813-.957-3.543-1.203-5.307-.668-4.863-1.308-9.743-1.798-14.622-.312-3.17-1.226-6.03-3.187-8.564a35.478 35.478 0 01-4.726-8.118c-1.298-3.098-2.043-6.366-2.528-9.704-.166-1.144-.253-2.309-.492-3.444-.524-2.364-.184-4.735-.094-7.082.053-1.203.436-2.334 1.525-3.023 1.048-.645 2.188-.662 3.16.05.964.726 1.89 1.548 2.652 2.478 2.606 3.228 4.326 6.941 5.74 10.832 2.007 5.552 1.957 11.132.346 16.757-.35 1.218-.64 2.452-.996 3.683-.456 1.578-.558 3.158-.547 4.803.012 4.772.73 9.46 1.487 14.138.713 4.433 2.008 8.678 4.056 12.699 1.568 3.068 2.995 6.206 4.49 9.316.105.196.239.375.364.566.068-.03.148-.05.227-.072z" fill="#fff"/></svg>