<svg width="160" height="200" fill="none" xmlns="http://www.w3.org/2000/svg"><path d="M157.312 2.262c-1.796 1.065-9.791 11.77-11.366 15.235 3.651-2.887 11.017-12.754 11.366-15.235zM30.685 65.62c-2.849-1.3-5.042-3.507-6.778-6.341 2.206.395 3.163 2.469 4.849 3.545l4.338 2.756c6.92-.111 13.84-.195 20.756-.219-4.373-1.842-10.255-7.903-12.713-13.333l-.288.074c-10.653 2.857-20.714 7.192-30.386 12.465-2.38 1.29-4.616 2.837-7.252 4.475 1.028.465 1.649.818 2.305 1.025 4.96 1.58 9.91 3.16 14.886 4.69 3.739-5.017 9.14-6.691 14.96-7.513l-21.455-.051c-.354.002-.716-.133-1.072-.2a49.93 49.93 0 0110.088-1.228l7.762-.145zm5.64 1.618c-5.557 1.92-11.376 3.304-15.838 7.545l1.019.313c4.972 1.525 9.913 3.165 14.951 4.385.781-4.267 6.416-9.996 11.626-12.209l-11.758-.034zm16.508 12.823c1.716-4.876 7.349-10.718 12.382-13.235a96.07 96.07 0 01-9.855.472l-6.047-.024c-5.407 2.765-9.583 6.875-12.576 12.279 5.334 1.255 10.737 1.392 16.096.508zm13.531-13.36c-2.573 1.327-4.747 3.233-6.706 5.344-2.246 2.427-4.165 5.15-6.263 7.924.817-.148 1.636-.32 2.452-.51 10.896-2.573 19.754-8.872 28.272-15.745.193-.16.288-.437.55-.853-.533.12-.866.175-1.19.275a94.484 94.484 0 01-17.115 3.565zm8.261-3.268c-4.85-1.12-11.259-8.16-12.17-13.677-6.794-.389-13.54.334-20.184 1.984.307.392.542.822.782 1.22 3.087 5.076 7.06 9.249 12.087 12.393l1.272.002c6.187-.008 12.247-.695 18.213-1.922zM62.733 49.772c.463.458.965.896 1.262 1.443 2.685 4.854 5.912 9.201 10.812 12.186a113.87 113.87 0 0011.773-3.145c2.016-.648 3.956-1.534 6.508-2.538-1.011-.367-1.33-.525-1.66-.599-4.826-1.061-9.472-2.68-14.106-4.384-3.409-1.244-7.026-2.143-10.624-2.59a60.667 60.667 0 00-3.965-.373zm-3.657 101.61c-2.21 5.095-7.072 10.166-11.283 11.38 1.132 2.606 2.356 5.185 3.55 7.773 3.029 6.563 6.155 13.082 9.21 19.639.758 1.632 1.393 3.328 2.331 5.568.293-1.271.508-1.939.593-2.624.979-7.905 3.419-15.332 6.936-22.47 1.882-3.826 3.601-7.744 5.21-11.696-6.747-1.025-12.437-10.33-13.649-18.198-.097.876-.18 1.752-.232 2.633-.646 10.237-1.233 20.465-1.845 30.699-.064 1.072-.174 2.14-.258 3.215a9.28 9.28 0 01-.504-.039c-.08-.995-.218-1.981-.244-2.97-.24-7.657-.28-15.299.185-22.91zM45.71 163.027l-.2-.015.168-.06-.169-.359c-2.46-5.287-3.868-10.896-3.551-16.765.156-2.99.579-6.043 1.395-8.929 1.99-7.068 4.761-13.832 9.49-19.593 4.47-5.446 9.113-10.756 13.486-16.265 3.01-3.79 5.84-7.743 8.504-11.784 5.12-7.76 11.373-14.563 17.764-21.24 4.222-4.412 8.686-8.596 12.873-13.182-1.637.626-3.278 1.246-4.914 1.9-2.034.814-4.023 1.768-6.103 2.458-4.569 1.517-7.868 4.893-11.527 7.727-4.77 3.7-9.544 7.352-14.979 10.118-11.279 5.754-23.02 7.268-35.149 3.663-9.305-2.755-18.441-6.09-27.637-9.187-1.699-.564-3.366-1.217-5.16-1.866.322-.505.41-.808.613-.936 13.459-8.708 27.657-15.753 43.39-19.325 6.829-1.542 13.761-1.938 20.754-1.47 4.6.314 9.035 1.306 13.371 2.919 3.588 1.327 7.235 2.523 10.89 3.665 1.564.486 3.216.692 4.83 1.016 4.257.845 7.845-1.17 11.562-2.684 5.704-2.325 10.347-6.2 14.749-10.337 12.233-11.507 23.224-24.083 32.525-38.117 1.218-1.846 2.238-4.107 5.114-4.379.53.465 1.133 1 1.664 1.464.063.415.214.74.123.944-.793 1.629-1.44 3.358-2.47 4.821-7.515 10.713-16.917 19.689-26.493 28.494-2.299 2.128-4.482 4.272-5.752 7.227-.679 1.576-1.021 3.157-.46 4.793.86 2.495 1.595 5.077 2.769 7.427 2.814 5.66 6.012 11.132 8.77 16.822 3.078 6.36 5.32 13.006 6.008 20.141.611 6.345-.428 12.405-2.527 18.344-1.594 4.491-3.218 8.977-4.809 13.459-1.659 4.689-2.68 9.51-3.24 14.449-.349 2.95-1.036 5.852-1.62 9.083-.699-.675-1.252-1.022-1.562-1.526-4.37-6.99-8.982-13.831-12.976-21.021-4.912-8.828-8.623-18.222-10.475-28.196-1.264-6.773-.628-13.636.304-20.435 1.423-10.365 6.131-19.08 13.375-26.521.96-.978 1.902-1.99 2.688-3.109.633-.897 1.021-1.977 1.508-2.974a11.16 11.16 0 00-.514-.354c-3.086 2.652-6.222 5.266-9.262 7.978-10.931 9.75-21.563 19.812-30.731 31.28-2.505 3.133-4.609 6.593-6.882 9.909-.972 1.41-1.429 3.017-1.156 4.7.805 5.047 1.624 10.094 2.602 15.12 1.538 7.894 3.356 15.739 4.777 23.652.987 5.498.36 11.034-1.427 16.288-1.95 5.711-3.98 11.443-6.642 16.841-4.306 8.722-7.34 17.751-8.798 27.352-.146.987-.431 1.963-.687 2.93-.03.144-.244.237-.696.618-1.018-2.19-2.012-4.28-2.974-6.379-2.14-4.668-4.191-9.36-6.4-13.984-2.657-5.566-5.517-11.032-8.124-16.61zm1.82-.872c5.823-2.864 8.814-7.911 11.73-13.366.397-5.086 1.038-10.168 2.014-15.22-1.952 3.693-4.524 6.953-7.815 9.5-2.362 1.82-5.051 3.238-7.662 4.721-.524.298-1.191.367-1.841.456a30.728 30.728 0 001.978 9.985c.5 1.32 1.034 2.622 1.596 3.924zm70.576-81.925c-1.49 3.426-3.924 6.237-6.98 8.624-1.572 1.231-3.229 1.74-4.799 1.618.135 2.16.355 4.334.634 6.51.525 4.037 1.864 8.013 3.192 11.887.25.728.511 1.449.779 2.168 4.897-5.687 6.214-12.711 7.446-19.762.732 6.963-2.326 18.159-7.329 20.077 3.568 9.391 8.666 18.022 13.988 26.526 1.244 1.986 2.555 3.936 4.135 6.369.044-1.203.129-1.888.082-2.567-.255-3.903-.552-7.804-.822-11.707-.597-8.612.272-17.006 3.665-25.037.654-1.569 1.285-3.155 1.93-4.727-3.364-.045-6.129-1.508-8.582-3.643-2.033-1.773-3.901-3.648-5.161-5.839.743 12.068 2.47 24.127 4.404 36.176-4.054-15.447-6.408-30.998-6.582-46.673zm-11.828 9.507c1.531-.732 3.108-1.418 4.412-2.457 1.745-1.401 3.217-3.212 4.536-5.027 1.113-1.535 1.954-3.274 2.875-4.956.029-4.708.257-9.428.696-14.153-1.759 1.763-3.343 3.548-5.18 4.99-1.697 1.319-3.578 2.436-5.636 3.1-1.647 5.998-2.045 12.209-1.703 18.503zm-57.199 37.781c2.54-1.268 5.12-2.463 7.413-4.076 2.866-1.995 5.293-4.631 7.948-7.026-.702 4.296-9.472 11.018-15.768 11.957-.329.694-.64 1.406-.938 2.133-2.255 5.509-3.746 11.012-3.786 16.585 7.943-3.319 13.804-8.876 17.575-16.903.142.174.253.343.338.504.847-4.33 1.37-8.723 2.372-13.015 1.085-4.634 2.607-9.165 3.929-13.74.176-.619.287-1.268.556-2.491-2.898 3.37-5.371 6.187-7.784 9.05-4.476 5.329-8.765 10.729-11.855 17.022zm71.037-39.872c1.114 2.332 2.696 4.38 4.581 6.274 2.708 2.71 5.948 4.52 9.431 6.037.784-1.901 1.593-3.78 2.525-5.603 1.649-3.234 1.807-6.516 1.118-9.87a58.723 58.723 0 00-.829-3.577l-.244.492c-9.052-1.645-13.665-7.483-16.325-15.201-.564 7.159-.595 14.305-.257 21.448zm-57.664 49.756c.723 2.624 1.384 5.054 2.073 7.468.864 3.012 2.067 5.914 4.364 8.089 2.1 1.993 4.442 3.731 6.86 5.692l.326-.806c2.762-6.873 4.071-13.9 3.516-21.12-5.771-.845-12.24-9.66-13.532-17.186l-.205 1.197c-.933 5.591-2.464 11.072-3.402 16.666zm4.335-21.384c.804 4.067 1.51 7.774 3.67 11.045 2.456 3.724 5.59 6.691 9.114 9.41a43.443 43.443 0 00-.882-5.81c-2.198-9.904-4.218-19.846-6.32-29.772-.035-.145-.237-.244-.369-.373-.139.073-.36.112-.419.229-.302.664-.606 1.337-.845 2.026-1.52 4.36-2.912 8.751-3.949 13.245zm41.636-46.298c1.886-1.148 3.784-2.275 5.459-3.674 1.87-1.58 3.448-3.511 5.175-5.443.344-3.175.786-6.352 1.328-9.54-.213-.107-.418-.226-.626-.336-2.393 3.195-5.095 6.21-7.136 9.617a43.353 43.353 0 00-4.2 9.376zm12.293-7.273c.264.94.542 1.867.855 2.767 1.746 5.012 4.271 9.51 8.911 12.433 1.058.67 2.316 1.02 3.454 1.583 1.011.488 1.988 1.058 2.981 1.59-1.162-4.353-2.773-8.56-4.754-12.636a1964.89 1964.89 0 01-7.496-15.585c-.488-1.029-.828-2.114-1.25-3.177-.238.033-.479.062-.717.095a133.215 133.215 0 00-1.984 12.93zm19.133 29.73a9.43 9.43 0 00-.496-.064c-.283.512-.6 1-.82 1.537-1.344 3.299-2.517 6.679-4.016 9.911-3.705 8.005-4.95 16.414-4.547 25.143.026.505.17 1.005.31 1.805.37-.495.577-.668.659-.889 2.4-7.208 4.803-14.409 7.177-21.625 1.35-4.12 2.146-8.33 2.024-12.68-.025-1.053-.184-2.092-.291-3.138z" fill="#fff"/></svg>