<svg width="120" height="120" fill="none" xmlns="http://www.w3.org/2000/svg"><circle cx="60" cy="60" r="60" fill="#489192"/><g filter="url(#filter0_d_615_3510)" fill="#fff"><path d="M83.563 75.704a1.171 1.171 0 00-1.324.997 10.312 10.312 0 01-1.72 4.403 5.337 5.337 0 00-.958 3.048v4.84h-4.538c.771-1.692 1.266-3.13 1.266-5.262 0-5.577-3.06-6.017-3.06-10.812V67.88l5.112 1.788a6.013 6.013 0 013.147 2.54 1.171 1.171 0 102.002-1.22 8.361 8.361 0 00-4.284-3.498 9.232 9.232 0 00.678-4.638 9.339 9.339 0 00-2.803-5.706.51.51 0 01-.07-.682 6.187 6.187 0 00.853-5.917 4.452 4.452 0 002.37-3.932c0-.707-.167-1.377-.462-1.971.544-2.048 1.12-4.987 1.064-8.124-.058-3.251-.783-5.872-2.154-7.79-1.52-2.125-3.745-3.282-6.613-3.44a.477.477 0 01-.302-.12A18.847 18.847 0 0058.664 20a18.814 18.814 0 00-9.967 2.924 1.172 1.172 0 101.253 1.98 16.472 16.472 0 018.816-2.56c4.256 0 8.3 1.606 11.392 4.528.476.45 1.108.72 1.78.758 2.155.118 3.737.924 4.837 2.463 1.477 2.065 2.446 6.39 1.067 12.58a4.42 4.42 0 00-2.056-.505h-2.024v-4.034a2.59 2.59 0 00-1.393-2.3 9.769 9.769 0 01-4.243-4.412 2.095 2.095 0 00-1.473-1.154 2.115 2.115 0 00-1.83.473 12.095 12.095 0 01-7.9 2.937h-4.948a5.059 5.059 0 00-5.053 5.053v3.437h-2.024a4.42 4.42 0 00-2.254.615 16.576 16.576 0 01-.452-4.194 16.563 16.563 0 013.958-10.386 1.172 1.172 0 10-1.784-1.52 18.912 18.912 0 00-4.517 11.86 18.83 18.83 0 00.954 6.337 4.452 4.452 0 002.018 5.666 6.206 6.206 0 00.852 5.917.51.51 0 01-.07.682 9.34 9.34 0 00-2.802 5.706 9.23 9.23 0 00.678 4.638c-3.273 1.187-5.471 4.268-5.479 7.702v.06c0 2.58.774 5.066 2.238 7.186.354.512.542 1.105.542 1.715v13.865c0 1.094.89 1.983 1.984 1.983H79.92c1.094 0 1.985-.89 1.985-1.983V84.152c0-.61.187-1.203.542-1.716a12.668 12.668 0 002.114-5.409 1.172 1.172 0 00-.998-1.323zm-35.944 11.94a9.11 9.11 0 01.477-8.706c.375-.61.729-1.329.995-2.052a6.412 6.412 0 004.247 2.12v18.65h-4.506v-4.87c0-2.873-1.18-5.052-1.213-5.143zm8.063-7.156l2.907 2.613-2.907 2.614v-5.227zm.581 7.856l4.08-3.667 4.078 3.667-4.079 3.666-4.079-3.666zm2.326 5.242l-2.907 2.613v-5.226l2.907 2.613zM62.095 83.1l2.907-2.613v5.226L62.095 83.1zm2.907 7.872v5.226l-2.907-2.613 2.907-2.613zm-4.66-9.448l-2.775-2.494h5.55l-2.775 2.494zm0 13.637l2.775 2.494h-5.55l2.775-2.494zm7.004-16.156a6.412 6.412 0 004.246-2.12c.27.732.623 1.445.996 2.053a9.137 9.137 0 011.357 4.791c0 2.918-.927 3.443-1.698 6.08l-.017.062a11.529 11.529 0 00-.378 2.914v4.87h-4.506v-18.65zm3.54-6.399c0 2.25-1.83 4.08-4.08 4.08H53.878c-2.25 0-4.08-1.83-4.08-4.08v-5.548l1.767-.618 1.205 4.917a2.737 2.737 0 002.664 2.09h9.815c1.267 0 2.363-.86 2.665-2.09l1.205-4.917 1.767.618v5.548zm-3.88-7.384l-1.37 5.578a.398.398 0 01-.388.304h-9.815a.399.399 0 01-.388-.304l-1.367-5.577a2.753 2.753 0 00.574-1.679v-2.99c2.151 1.28 4.376 2.048 6.089 2.048s3.937-.769 6.089-2.048v2.99c0 .622.211 1.207.574 1.679zm10.547-2.118a6.905 6.905 0 01-.565 3.606l-7.934-2.776a.416.416 0 01-.28-.391v-4.618c3.823-3.083 4.782-6.048 4.955-7.863h1.808a3.86 3.86 0 01-.398 3.99 2.862 2.862 0 00.317 3.78 6.99 6.99 0 012.097 4.272zM75.786 44.51c1.16 0 2.104.944 2.104 2.103 0 1.16-.944 2.105-2.104 2.105h-2.024V44.51h2.024zm-26.52-5.78a2.712 2.712 0 012.709-2.71h4.947a14.44 14.44 0 009.219-3.325 12.13 12.13 0 005.14 5.213c.084.044.137.13.137.225v12.26c0 2.167-1.515 4.624-4.157 6.742-2.293 1.838-5.138 3.122-6.919 3.122-1.78 0-4.626-1.284-6.92-3.122-2.641-2.118-4.156-4.575-4.156-6.742V38.731zm-4.368 5.78h2.024v4.208h-2.024a2.107 2.107 0 01-2.104-2.105c0-1.16.944-2.103 2.104-2.103zM43.13 63.105a6.991 6.991 0 012.098-4.271 2.862 2.862 0 00.317-3.781 3.851 3.851 0 01-.398-3.99h1.808c.173 1.815 1.131 4.78 4.954 7.863v4.618a.416.416 0 01-.277.39l-7.936 2.777a6.906 6.906 0 01-.566-3.606zM38.344 75.25v-.056c.005-2.47 1.613-4.692 4-5.527l5.11-1.788v5.04A9.149 9.149 0 0146.1 77.71a11.447 11.447 0 00-.597 10.937l.16.346h-4.539v-4.841a5.337 5.337 0 00-.957-3.047 10.256 10.256 0 01-1.822-5.855zm2.78 16.086h5.246c.078.48.119.966.119 1.45v4.87h-5.366v-6.32zm33.071 6.32v-4.87c0-.484.041-.97.119-1.45h5.247v6.32h-5.366z"/><path d="M56.204 51.232a1.172 1.172 0 00-.055 1.657c1.056 1.129 2.584 1.776 4.193 1.776 1.609 0 3.137-.647 4.193-1.776a1.172 1.172 0 00-1.712-1.601c-.614.656-1.518 1.033-2.481 1.033-.963 0-1.867-.377-2.481-1.033a1.172 1.172 0 00-1.657-.056zm-.006-4.972v-1.207a1.172 1.172 0 10-2.344 0v1.206a1.172 1.172 0 102.344 0zm-2.653-4.408c.364-.39.904-.613 1.48-.613.578 0 1.118.224 1.482.613a1.168 1.168 0 001.657.055 1.172 1.172 0 00.055-1.656c-.806-.861-1.97-1.355-3.193-1.355-1.224 0-2.388.494-3.193 1.355a1.172 1.172 0 101.712 1.6zm12.113 2.028c-.647 0-1.172.525-1.172 1.173v1.206a1.172 1.172 0 102.344 0v-1.206c0-.648-.525-1.172-1.172-1.172zm-2.338-1.657c.314 0 .626-.124.857-.371.364-.39.904-.613 1.481-.613.578 0 1.117.224 1.482.613a1.172 1.172 0 001.711-1.601c-.805-.862-1.97-1.355-3.193-1.355s-2.387.494-3.193 1.355a1.172 1.172 0 00.856 1.972z"/></g><defs><filter id="filter0_d_615_3510" x="35" y="20" width="50.572" height="82" filterUnits="userSpaceOnUse" color-interpolation-filters="sRGB"><feFlood flood-opacity="0" result="BackgroundImageFix"/><feColorMatrix in="SourceAlpha" values="0 0 0 0 0 0 0 0 0 0 0 0 0 0 0 0 0 0 127 0" result="hardAlpha"/><feOffset dy="1"/><feGaussianBlur stdDeviation=".5"/><feComposite in2="hardAlpha" operator="out"/><feColorMatrix values="0 0 0 0 0 0 0 0 0 0 0 0 0 0 0 0 0 0 0.1 0"/><feBlend in2="BackgroundImageFix" result="effect1_dropShadow_615_3510"/><feBlend in="SourceGraphic" in2="effect1_dropShadow_615_3510" result="shape"/></filter></defs></svg>