<svg width="120" height="120" fill="none" xmlns="http://www.w3.org/2000/svg"><circle cx="60" cy="60" r="60" fill="#489192"/><g filter="url(#filter0_d_615_3447)" fill="#fff"><path d="M58.49 62.265l-8.412-2.524v-3.407c3.109-2.302 5.212-5.888 5.51-9.97a3.953 3.953 0 002.81-3.778 3.946 3.946 0 00-1.386-2.988v-8.106c0-2.222-1.126-4.3-2.97-5.546A5.295 5.295 0 0048.906 22H37.813c-6 0-10.88 4.88-10.88 10.879v6.719a3.946 3.946 0 00-1.386 2.988 3.952 3.952 0 002.81 3.779c.299 4.081 2.401 7.667 5.51 9.97v3.406L23.8 62.761A5.3 5.3 0 0020 67.87v13.545c0 .647.525 1.172 1.172 1.172h.215v14.082a1.172 1.172 0 002.343 0V82.586h4.59v14.082a1.172 1.172 0 002.344 0V74.48a1.17 1.17 0 00-.124-.524l-2.773-5.547a1.172 1.172 0 10-2.096 1.049l2.65 5.3v5.484h-5.977V67.87c0-1.33.856-2.48 2.13-2.863l4.208-1.262c1.43 6.079 6.936 10.522 13.29 10.522a13.65 13.65 0 0013.29-10.523l2.554.767a1.171 1.171 0 10.674-2.245zM30.664 45.359c0-.647-.525-1.172-1.172-1.172a1.603 1.603 0 01-1.601-1.601c0-.569.3-1.083.804-1.376.026-.015.05-.033.074-.05a1.6 1.6 0 01.723-.176h1.774a2.555 2.555 0 002.427-1.75l.808-2.421c2.755-.06 11.437-.446 16.316-2.886a1.172 1.172 0 10-1.048-2.096c-5.233 2.616-16.008 2.65-16.117 2.65a1.17 1.17 0 00-1.111.8l-1.071 3.213a.215.215 0 01-.204.147h-1.774c-.072 0-.143.003-.215.007v-5.77c0-4.705 3.83-8.534 8.535-8.534h11.094c1.47 0 2.705 1.06 2.937 2.519.056.353.27.661.582.837 1.383.78 2.243 2.233 2.243 3.792v8.705c0 .417.222.803.582 1.013.504.293.804.807.804 1.376 0 .883-.718 1.602-1.601 1.602-.647 0-1.172.524-1.172 1.171 0 6.236-5.073 11.309-11.309 11.309-6.235 0-11.308-5.073-11.308-11.309zm17.07 12.374v2.88a5.768 5.768 0 01-5.761 5.762 5.768 5.768 0 01-5.762-5.747v-2.895a13.57 13.57 0 005.762 1.279c2.058 0 4.01-.46 5.761-1.279zm1.612 11.455a11.306 11.306 0 01-7.373 2.734c-5.313 0-9.907-3.748-11.04-8.854l3.081-.924c.718 3.74 4.013 6.575 7.959 6.575 3.946 0 7.24-2.835 7.958-6.575l3.08.924a11.32 11.32 0 01-3.665 6.12z"/><path d="M45.484 48.61a1.172 1.172 0 00-1.648.172c-.498.614-1.16.953-1.863.953-.703 0-1.365-.339-1.864-.953a1.172 1.172 0 10-1.82 1.476c.938 1.157 2.281 1.82 3.684 1.82 1.402 0 2.745-.663 3.683-1.82a1.17 1.17 0 00-.172-1.648zm-9.058-7.196c-.647 0-1.172.525-1.172 1.172v1.387a1.172 1.172 0 002.344 0v-1.387c0-.647-.525-1.172-1.172-1.172zm11.094 0c-.648 0-1.172.525-1.172 1.172v1.387a1.172 1.172 0 002.343 0v-1.387c0-.647-.524-1.172-1.172-1.172zm35.406 14.129a1.172 1.172 0 00-1.648.172c-.499.614-1.16.953-1.864.953-.703 0-1.365-.338-1.863-.953a1.172 1.172 0 10-1.82 1.476c.938 1.157 2.28 1.82 3.683 1.82s2.745-.663 3.684-1.82c.407-.502.33-1.24-.172-1.648zm-9.059-7.195c-.647 0-1.172.524-1.172 1.172v1.386a1.172 1.172 0 002.344 0V49.52c0-.648-.525-1.172-1.172-1.172zm11.093 0a1.17 1.17 0 00-1.17 1.172v1.386a1.172 1.172 0 002.343 0V49.52c0-.648-.525-1.172-1.172-1.172z"/><path d="M96.648 72.346l-9.508-3.803a1.615 1.615 0 01-.23-.115c6.44-1.297 9.456-2.516 9.589-2.57.49-.2.784-.705.719-1.23-.014-.11-1.378-11.132-1.378-20.656 0-9.057-7.369-16.425-16.426-16.425-9.057 0-16.426 7.369-16.426 16.426 0 9.52-1.364 20.545-1.377 20.655a1.172 1.172 0 00.718 1.23c.134.055 3.15 1.274 9.59 2.57-.073.044-.15.083-.23.115l-9.509 3.804a5.306 5.306 0 00-3.352 4.95v2.945h-3.203v-5.485l2.65-5.3a1.172 1.172 0 10-2.097-1.047l-2.773 5.547a1.171 1.171 0 00-.124.524v22.187a1.172 1.172 0 002.344 0V82.586h3.203v1.602A1.172 1.172 0 0060 85.36h.215v11.308a1.172 1.172 0 002.344 0V85.36h3.203v11.31a1.172 1.172 0 002.344 0V81.413a1.172 1.172 0 00-2.344 0v1.602h-4.59v-5.719c0-1.229.737-2.318 1.878-2.775l4.675-1.87a12.258 12.258 0 0011.69 8.547 12.259 12.259 0 0011.688-8.546l4.675 1.87a2.974 2.974 0 011.878 2.774v5.719h-4.59v-1.602a1.172 1.172 0 00-2.343 0v15.254a1.172 1.172 0 102.343 0V85.36h3.203v11.31a1.172 1.172 0 002.344 0V85.36h.215c.647 0 1.172-.524 1.172-1.171v-6.891a5.307 5.307 0 00-3.352-4.95zM65.332 43.973c0-7.765 6.317-14.082 14.082-14.082 7.765 0 14.082 6.317 14.082 14.082 0 8.045.957 17.128 1.286 20.015-1.298.441-4.14 1.31-8.65 2.205v-2.017a13.587 13.587 0 001.859-1.26 13.705 13.705 0 004.737-7.59c.225-.99.338-2.01.338-3.033 0-6.826-4.944-7.807-9.725-8.757-3.058-.607-6.22-1.234-8.742-3.252a1.171 1.171 0 00-1.78.39 13.741 13.741 0 01-1.773 2.564c-.94 1.066-2.417 2.336-4.113 2.336a3.92 3.92 0 00-1.619.35c.012-.655.018-1.306.018-1.951zm14.082 19.629c-2.617 0-5.073-.868-7.103-2.51a11.353 11.353 0 01-3.925-6.285c-.186-.82-.28-1.665-.28-2.514 0-.647-.525-1.172-1.172-1.172a1.603 1.603 0 01-1.602-1.602c0-.883.719-1.601 1.602-1.601 3.553 0 6.13-3.218 7.295-5.018 2.733 1.76 5.858 2.38 8.656 2.936 5.15 1.022 7.838 1.773 7.838 6.457 0 .849-.095 1.695-.28 2.514a11.352 11.352 0 01-3.926 6.286 11.181 11.181 0 01-7.103 2.509zm-15.368.386c.207-1.819.664-6.096.973-11.023.245.137.505.25.78.333.05.684.15 1.363.301 2.028a13.706 13.706 0 004.738 7.59c.584.472 1.207.893 1.857 1.26v2.017c-4.51-.895-7.352-1.764-8.65-2.205zm15.368 14.868a9.916 9.916 0 01-9.507-7.076l2.652-1.06a3.926 3.926 0 002.48-3.664v-1.835c1.402.474 2.88.725 4.375.725s2.974-.251 4.375-.725v1.835c0 1.623.974 3.06 2.48 3.663l2.652 1.061a9.916 9.916 0 01-9.507 7.076z"/></g><defs><filter id="filter0_d_615_3447" x="19" y="22" width="82" height="77.84" filterUnits="userSpaceOnUse" color-interpolation-filters="sRGB"><feFlood flood-opacity="0" result="BackgroundImageFix"/><feColorMatrix in="SourceAlpha" values="0 0 0 0 0 0 0 0 0 0 0 0 0 0 0 0 0 0 127 0" result="hardAlpha"/><feOffset dy="1"/><feGaussianBlur stdDeviation=".5"/><feComposite in2="hardAlpha" operator="out"/><feColorMatrix values="0 0 0 0 0 0 0 0 0 0 0 0 0 0 0 0 0 0 0.1 0"/><feBlend in2="BackgroundImageFix" result="effect1_dropShadow_615_3447"/><feBlend in="SourceGraphic" in2="effect1_dropShadow_615_3447" result="shape"/></filter></defs></svg>