<svg width="120" height="120" fill="none" xmlns="http://www.w3.org/2000/svg"><circle cx="60" cy="60" r="60" fill="#489192"/><g filter="url(#filter0_d_615_3461)"><path d="M92.54 95.108c1.728-1.335 3.684-2.85 7.46-2.85v2.58c-2.894 0-4.277 1.072-5.88 2.312-1.728 1.335-3.684 2.85-7.46 2.85-3.775 0-5.731-1.515-7.459-2.85-1.601-1.24-2.985-2.311-5.88-2.311-2.891 0-4.275 1.07-5.876 2.31-1.724 1.336-3.681 2.851-7.454 2.851-3.774 0-5.73-1.515-7.457-2.85-1.601-1.24-2.986-2.311-5.878-2.311-2.89 0-4.275 1.07-5.875 2.31C39.057 98.486 37.1 100 33.327 100c-3.773 0-5.728-1.515-7.453-2.85-1.6-1.24-2.984-2.311-5.874-2.311v-2.58c3.773 0 5.728 1.514 7.453 2.85 1.601 1.24 2.983 2.31 5.874 2.31 2.89 0 4.274-1.07 5.874-2.31 1.725-1.336 3.68-2.85 7.455-2.85s5.731 1.514 7.458 2.85c1.602 1.24 2.985 2.31 5.877 2.31 2.89 0 4.273-1.07 5.875-2.31 1.726-1.336 3.682-2.85 7.455-2.85 3.776 0 5.732 1.514 7.46 2.85 1.602 1.24 2.985 2.31 5.88 2.31 2.894 0 4.278-1.07 5.88-2.31zm-6.734-18.334H100v2.58H76.774v8.103c3.471.731 5.703 2.439 7.167 3.569 1.347 1.044 1.59 1.232 2.72 1.232 1.13 0 1.373-.188 2.72-1.23 1.9-1.47 5.08-3.931 10.619-3.931v2.58c-4.657 0-7.19 1.96-9.039 3.391-1.474 1.142-2.287 1.77-4.3 1.77s-2.825-.628-4.301-1.77c-1.849-1.43-4.38-3.39-9.039-3.39-4.655 0-7.187 1.96-9.036 3.39-1.475 1.144-2.286 1.77-4.294 1.77-2.01 0-2.823-.628-4.298-1.77-1.848-1.43-4.377-3.39-9.037-3.39-4.655 0-7.186 1.96-9.035 3.39-1.475 1.144-2.287 1.77-4.294 1.77-2.01 0-2.821-.628-4.293-1.768-1.85-1.433-4.381-3.393-9.034-3.393v-2.58c5.537 0 8.713 2.46 10.612 3.93 1.347 1.043 1.588 1.231 2.715 1.231 1.125 0 1.369-.188 2.713-1.227 1.9-1.474 5.077-3.934 10.616-3.934 5.541 0 8.718 2.46 10.617 3.93.671.52 1.068.827 1.437 1.004V79.355H20v-2.58h18.065v-5.198a7.164 7.164 0 01-6.314-8.529l.355-1.773c-3.13-.083-5.654-2.642-5.654-5.791a5.814 5.814 0 015.806-5.807 5.814 5.814 0 015.806 5.807c0 .22-.046.43-.07.645h2.822l1.335-9.34 6.548 1.638-.624 2.502-3.774-.942-.878 6.142h2.15l1.384 6.919c.093.46.14.931.14 1.404 0 3.71-2.835 6.767-6.452 7.125v5.197h9.032v-1.29a3.85 3.85 0 011.29-2.865V61.574c0-6.095 4.156-11.275 10.105-12.597l1.509-.336v-.854l-.424-.282a7.728 7.728 0 01-3.447-6.442v-.418h-1.29a3.876 3.876 0 01-3.872-3.87c0-.96.364-1.83.945-2.505a10.054 10.054 0 01-.937-4.197 10 10 0 012.945-7.122A9.996 9.996 0 0163.62 20h8.485a9.546 9.546 0 019.067 6.535l.272.817c.325.977.49 1.994.49 3.022 0 1.377-.31 2.73-.88 3.973a3.83 3.83 0 01.88 2.427 3.876 3.876 0 01-3.87 3.871h-1.29v.418a7.728 7.728 0 01-3.449 6.441l-.423.283v.854l1.509.336c5.95 1.321 10.104 6.502 10.104 12.597v11.047a3.85 3.85 0 011.29 2.864v1.29zM32.626 58.68l.51-2.551h2.277c.043-.21.07-.426.07-.645a3.229 3.229 0 00-3.225-3.226 3.229 3.229 0 00-3.226 3.226 3.229 3.229 0 003.226 3.226c.124 0 .246-.017.368-.03zm6.148 10.352h1.161a4.587 4.587 0 004.493-5.477l-.969-4.845h-8.207l-.97 4.845a4.587 4.587 0 004.492 5.478zm40.58-32.258a1.29 1.29 0 00-1.29-1.29h-1.29v2.58h1.29a1.29 1.29 0 001.29-1.29zm-20.644 1.29v-2.58h-1.29a1.29 1.29 0 000 2.58h1.29zm4.783-6.607l1.503-1.505.881.587a14.036 14.036 0 007.807 2.364h.467c-.106-1.16-.768-2.188-1.825-2.716l1.155-2.308a5.918 5.918 0 013.273 5.024h1.31c.266 0 .526.027.777.079a6.986 6.986 0 00.514-2.608c0-.75-.121-1.493-.358-2.206l-.272-.817a6.97 6.97 0 00-6.62-4.77h-8.484c-2 0-3.88.779-5.294 2.193a7.435 7.435 0 00-2.19 5.296 7.48 7.48 0 00.59 2.903c.225-.041.455-.07.692-.07H60c1.3 0 2.573-.526 3.493-1.446zm-9.945 40.156h2.581c.668 0 1.288.186 1.837.485l.744-4.463V54.839h2.58v2.58c0 .713.578 1.29 1.29 1.29h2.581a1.29 1.29 0 001.29-1.29v-1.29h2.581v1.29c0 .713.578 1.29 1.29 1.29h2.581a1.29 1.29 0 001.29-1.29v-2.58h2.581v12.796l.743 4.463c.55-.3 1.17-.485 1.838-.485h2.58V61.574a10.26 10.26 0 00-8.083-10.077l-3.53-.783v-2.927c0-.864.43-1.667 1.15-2.147l.424-.283a5.153 5.153 0 002.297-4.294v-5.58h-.51c-2.941 0-5.802-.77-8.333-2.234l-.033.032a7.567 7.567 0 01-4.027 2.09v5.692c0 1.73.86 3.334 2.298 4.294l.424.283c.72.48 1.15 1.283 1.15 2.147v2.927l-3.53.783a10.26 10.26 0 00-8.084 10.077v10.039zm18.065 0a5.12 5.12 0 013.437 1.34l-.645-3.92H61.093l-.652 3.913a5.121 5.121 0 013.43-1.333c1.548 0 2.924.7 3.87 1.783.948-1.084 2.322-1.783 3.872-1.783zM65.16 61.29h-2.58c-.457 0-.89-.094-1.297-.24l-.01 5.402h12.92v-5.4a3.827 3.827 0 01-1.29.238h-2.581a3.846 3.846 0 01-2.581-1.006 3.846 3.846 0 01-2.58 1.006zm-7.74 15.484l-.002-.98v-.31a1.29 1.29 0 00-1.29-1.29h-2.58a1.29 1.29 0 00-1.29 1.29v1.29h5.163zm9.024 11.843l.007-11.843a2.583 2.583 0 00-2.581-2.58 2.583 2.583 0 00-2.58 2.58v15.247c.362-.178.756-.482 1.414-.99.91-.706 2.125-1.635 3.74-2.414zm7.749-1.473v-10.37a2.583 2.583 0 00-2.581-2.58 2.583 2.583 0 00-2.58 2.58v10.892a16.12 16.12 0 014.288-.57c.307 0 .58.034.873.048zm9.034-10.37l-.002-1.29a1.29 1.29 0 00-1.29-1.29h-2.581a1.29 1.29 0 00-1.29 1.29v1.29h5.163z" fill="#fff"/></g><defs><filter id="filter0_d_615_3461" x="19" y="20" width="82" height="82" filterUnits="userSpaceOnUse" color-interpolation-filters="sRGB"><feFlood flood-opacity="0" result="BackgroundImageFix"/><feColorMatrix in="SourceAlpha" values="0 0 0 0 0 0 0 0 0 0 0 0 0 0 0 0 0 0 127 0" result="hardAlpha"/><feOffset dy="1"/><feGaussianBlur stdDeviation=".5"/><feComposite in2="hardAlpha" operator="out"/><feColorMatrix values="0 0 0 0 0 0 0 0 0 0 0 0 0 0 0 0 0 0 0.1 0"/><feBlend in2="BackgroundImageFix" result="effect1_dropShadow_615_3461"/><feBlend in="SourceGraphic" in2="effect1_dropShadow_615_3461" result="shape"/></filter></defs></svg>