<svg width="287" height="300" fill="none" xmlns="http://www.w3.org/2000/svg"><path opacity=".5" d="M64.879 90.528c1.621.124 3.246.365 4.867.35 3.72-.041 7.438-.216 11.156-.316 7.356-.199 14.51.767 21.413 3.47 5.474 2.147 10.954 4.323 16.553 6.098 3.64 1.153 7.484 1.702 11.273 2.325.873.144 1.884-.52 3.734-1.091-1.684-1.519-2.64-2.69-3.866-3.41a34.607 34.607 0 00-5.874-2.764c-10.088-3.612-20.417-6.311-31.03-7.826-9.582-1.365-18.993-.71-28.226 3.164zm81.549 73.483c5.57 14.105 1.885 71.686-6.709 85.078 1.291-7.412 2.453-14.545 3.789-21.645 3.413-18.104 3.422-36.337 2.331-54.626-.121-2.009-.32-4.025-.271-6.03.023-.931.558-1.852.86-2.777zm33.14 81.53c5.721-33.808 1.905-67.195-4.303-100.324 2.313-.985 3.154.302 3.626 1.566.866 2.305 1.776 4.674 2.097 7.092 2.637 19.828 4.72 39.722 3.459 59.757-.618 9.867-2.069 19.684-3.187 29.516-.097.844-.519 1.646-.794 2.468l-.898-.075zm53.82-83.764c-.246 2.162-.774 3.806-.54 5.331a135.314 135.314 0 002.456 12.28c2.4 9.604 5.526 18.957 10.354 28.846.316-2.457.715-3.922.653-5.365-.241-5.568-.422-11.15-1.01-16.686-.677-6.338-2.168-12.52-5.257-18.189-1.322-2.424-2.678-4.879-6.656-6.217zm-66.066 27.194c-2.557 1.753-2.917 4.373-3.087 6.963-.413 6.173-.649 12.358-1.014 18.534-1.102 18.633-3.99 36.887-11.512 54.165-.393.9-.531 1.911-1.044 3.837 1.349-1.404 2.05-2.006 2.598-2.725 11.942-15.683 18.969-33.307 19.971-53.015.327-6.419-.691-12.946-1.517-19.366-.398-3.108-1.259-6.372-4.395-8.393zm35.158 81.139c4.009-2.842 7.879-5.912 12.062-8.475 5.733-3.509 9.666-7.901 9.684-15.036.005-1.5.555-3.069 1.168-4.467.359-.809 1.348-1.34 2.321-2.247 2.341 4.169-.444 7.63-.194 11.157 15.452-7.23 20.927-19.969 17.263-35.494-1.122-4.76-3.295-9.327-5.38-13.798-4.731-10.155-8.401-20.639-10.524-31.638-.43-2.233-.612-4.675-.186-6.883 1.019-5.286 5.97-7.106 10.237-3.796 1.795 1.393 3.339 3.256 4.59 5.169 3.17 4.85 5.131 10.207 6.001 15.96 1.606 10.637 2.581 21.217-1.403 31.637-.496 1.293-.163 3.044.169 4.495 3.132 13.733-.386 25.234-11.781 33.751-8.43 6.302-17.168 12.197-25.883 18.105-2.543 1.725-5.42 2.995-8.249 4.242-2.884 1.271-4.084.577-4.28-2.589-.173-2.767-.12-5.595.253-8.338 1.341-9.814 3.03-19.581 4.266-29.404 1.942-15.4 2.583-30.864 1.371-46.362-.322-4.106-.572-4.691-2.489-8.115-2.384 2.818-2.853 6.124-3.089 9.395-.597 8.186-.963 16.39-1.52 24.581-.594 8.805-1.367 17.598-1.946 26.404-.594 9.115-1.218 18.233-1.517 27.359-.343 10.361-4.788 17.41-14.666 21.447-9.704 3.965-19.582 5.567-29.949 4.891-3.703-.242-7.42-.287-11.124-.539-.987-.067-1.945-.569-2.918-.869.373-1.09.458-2.445 1.173-3.22 2.199-2.393 4.686-4.514 6.961-6.84 1.061-1.087 2.199-2.273 2.774-3.633 5.91-14.013 11.268-28.21 12.59-43.54.932-10.798 1.623-21.614 2.574-32.413a61.93 61.93 0 011.723-10.023c.575-2.216 1.657-4.591 4.414-4.845 2.888-.264 4.775 1.742 5.649 4.062 1.621 4.312 3.602 8.759 3.896 13.249 2.102 32.22-6.805 60.274-32.164 81.792-1.037.88-2.001 1.847-3.415 3.156 6.252 1.307 11.989 1.269 17.771.47 2.137-.294 3.116-1.716 4.056-3.402 3.09-5.549 6.238-11.063 9.392-16.576.744-1.291 1.608-2.515 2.428-3.789 2.609 1.284 1.46 2.994.851 4.121-2.506 4.623-5.224 9.133-7.895 13.663-.698 1.181-1.509 2.293-2.685 4.064 1.618-.249 2.662-.18 3.485-.574 5.296-2.552 10.571-5.152 15.796-7.849 2.842-1.467 4.189-4.178 4.671-7.144.613-3.81 1.255-7.7 1.14-11.53-.34-11.368 1.305-22.537 2.557-33.772 1.338-11.999 2.009-24.069 3.231-36.082.387-3.806 1.425-7.583 2.548-11.257.387-1.264 1.799-2.855 2.984-3.094 1.916-.382 2.94 1.477 3.355 3.182.768 3.152 1.711 6.328 1.92 9.538 1.031 15.763 2.478 31.554.319 47.316-1.277 9.35-3.145 18.616-4.704 27.929-.325 1.95-.442 3.93-.656 5.897l.974.601zM153.747 75.08c.151-.393.297-.784.447-1.174-2.105-3.225-4.777-5.956-8.057-8.005-5.231-3.271-10.68-6.2-15.829-9.597-7.599-5.011-16.018-6.902-25.418-7.39.85.639 1.27 1.097 1.794 1.325 9.161 3.949 17.244 9.54 24.838 15.946 4.539 3.83 9.862 6.346 15.574 7.909 2.146.588 4.432.67 6.651.986zM101.4 286.205c.188.131.374.258.558.388 1.977-2.264 4.119-4.407 5.902-6.817 12.522-16.931 20.437-35.989 25.597-56.26 1.151-4.523 1.546-9.22-.115-13.74-.617-1.678-1.606-3.392-2.876-4.622-2.364-2.286-4.938-1.785-6.432 1.152-.901 1.77-1.536 3.731-1.967 5.675-1.843 8.303-3.69 16.604-5.309 24.95-3.22 16.601-7.097 32.976-15.149 48.049-.187.348-.144.815-.209 1.225zm109.259-174.076c.043-1.631-.213-3.342.19-4.88 1.534-5.837 3.265-11.621 4.954-17.417 2.247-7.725 4.583-15.426 6.767-23.168 1.919-6.801 1.404-13.443-1.391-19.98a145.126 145.126 0 01-4.867-13.011c-1.398-4.397-4.002-7.644-8.028-9.757-2.051-1.077-4.143-2.158-6.334-2.88-11.622-3.833-23.16-7.785-33.855-13.94-4.724-2.717-10.113-3.912-15.621-4.007-2.545-.042-5.292-.377-7.33 2.043.978 2.755 3.147 4.27 5.329 5.693 1.942 1.264 4.03 2.312 6.057 3.444 9.947 5.56 15.925 14.014 18.171 25.113.327 1.623.391 3.423.062 5.035-.95 4.67-4.798 6.282-8.73 3.628-1.771-1.196-3.316-2.8-4.738-4.413-8.291-9.401-16.553-18.823-24.744-28.31-4.171-4.827-8.854-6.056-14.408-2.997-3.919 2.157-7.569 4.814-11.286 7.327-.628.427-.983 1.257-1.695 2.201 5.835.57 10.91 1.843 15.366 4.945-4.499-.31-8.903-.953-13.31-1.57-4.591-.646-8.431.43-11.508 4.247-2.424 3.004-5.336 5.61-7.997 8.425-.68.717-1.239 1.547-2.438 3.07 7.266 1.293 13.779 2.579 20.336 3.582 5.814.889 11.898 1.028 17.062 4.055 7.605 4.46 15.093 9.173 22.237 14.324 3.028 2.186 5.389 5.542 7.453 8.753 2.25 3.507.766 6.032-3.33 6.351-1.674.134-3.417-.01-5.075-.321-6.64-1.259-12.968-3.585-18.122-7.95-13.683-11.59-30.023-17.724-46.607-23.465-2.052-.712-3.952-.677-5.783.488-5.733 3.654-9.834 8.719-13.17 14.852 8.228-.715 16.41-.302 19.553 1.1-7.622 1.189-14.859 2.315-22.237 3.465-2.427 7.137-4.819 14.183-7.407 21.804 1.813-.41 2.842-.645 3.868-.878 8.002-1.81 15.901-4.192 24.201-4.294 9.84-.118 19.477 1.338 28.879 4.107 5.185 1.528 10.321 3.331 15.269 5.491 2.775 1.21 5.452 3.075 7.576 5.229 2.949 2.995 1.476 6.915-2.701 7.416-2.719.329-5.614.242-8.279-.34-3.452-.757-6.808-2.054-10.11-3.359-12.677-5.02-25.568-8.503-39.412-6.395-1.97.297-4.024.147-6.032.069-4.8-.187-9.598-.412-14.394-.7-6.43-.388-11.345 2.217-15.258 7.232-3.676 4.71-6.215 9.974-8.18 15.55-.307.868-.347 1.825-.592 3.221 4.201-2.581 7.71-5.246 12.324-4.977a152.185 152.185 0 01-12.32 8.978c-1.402.915-2.266 1.835-2.689 3.487-1.15 4.497-2.529 8.93-3.772 13.403-.44 1.58-.75 3.194-1.282 5.493 6.89-3.771 12.381-7.949 16.962-13.251 4.458-5.166 10.119-8.119 16.73-9.264 10.555-1.832 21.155-3.161 31.913-2.354 9.967.746 19.725 2.378 28.611 7.22 2.946 1.608 5.87 3.575 8.172 5.983 5.952 6.226 4.134 12.129-4.156 14.315-8.15 2.147-16.246 1.911-24.285-.64-8.766-2.779-17.695-3.358-26.595-1.018a1846.535 1846.535 0 00-43.865 12.107c-5.9 1.711-9.864 7.786-10.726 15.258 3.226-1.969 6.327-4.013 9.567-5.806 3.126-1.727 6.202-3.79 10.304-3.6-.155 2.28-1.845 2.736-3.062 3.442-5.622 3.266-11.327 6.395-16.944 9.676-1.272.742-2.797 1.682-3.347 2.916-1.737 3.89-3.064 7.962-4.76 12.533 3.492-.856 6.269-1.81 9.12-2.174 5.476-.706 9.979-3.16 13.905-6.872 2.367-2.237 4.706-4.502 7.052-6.758 4.348-4.177 9.409-6.99 15.331-8.287 6.122-1.342 12.285-1.828 18.476-.884 5.754.876 11.207 2.715 15.297 7.12 3.727 4.012 3.032 8.237-1.879 10.559-3.19 1.506-6.648 2.546-10.086 3.4-8.358 2.081-16.89 1.939-25.43 1.623-11.195-.409-21.499 2.273-30.54 9.141-4.394 3.341-7.943 7.383-10.308 12.386-1.151 2.44-1.86 4.989-1.221 8.2 3.422-3.219 4.702-7.73 9.047-9.211.007 1.05-.265 1.882-.76 2.551-1.841 2.492-3.565 5.112-5.698 7.335-2.063 2.15-2.214 4.257-1.041 6.742.577 1.225 1.12 2.466 1.886 4.166.744-1.172 1.35-1.867 1.666-2.674 2.71-6.962 7.863-11.447 14.653-14.052 5.776-2.213 11.64-4.247 17.582-5.954 2.611-.749 5.522-.697 8.287-.619 2.813.078 5.027 1.548 6.17 4.218 1.18 2.768.166 5.241-1.633 7.288-1.31 1.489-2.903 2.861-4.622 3.836-5.245 2.98-10.622 5.73-15.938 8.587-6.405 3.449-12.922 6.715-19.172 10.428-7.077 4.209-7.044 4.629-3.133 12.008 2.183 4.117 4.317 8.236 4.663 13.015.069.959.303 1.905.524 3.229 3.518-3.181 6.458-6.167 9.726-8.729 7.437-5.83 15.013-11.487 22.574-17.155 7.086-5.313 13.89-10.927 19.554-17.786 6.514-7.885 12.968-15.812 19.424-23.745.236-.289.212-.79.265-1.012-5.491-.576-10.854-1.149-16.216-1.7-12.103-1.241-24.156.07-36.223.698-1.43.076-2.861.126-4.292.185.477-.913 1.022-1.078 1.584-1.173 15.184-2.59 30.445-3.571 45.839-2.419 3.843.286 7.75.295 11.58-.079 1.842-.179 3.865-1.205 5.294-2.439 6.212-5.37 12.242-10.953 18.325-16.469 2.497-2.262 4.96-4.557 7.448-6.846-6.178-1.898-12.136-3.553-17.972-5.556-10.588-3.639-21.316-6.498-32.558-7.153-5.212-.303-10.412-.785-15.62-1.187.71-.609 1.429-.895 2.166-.946 2.008-.135 4.025-.257 6.034-.23 14.829.209 29.263 2.747 43.358 7.323a264.366 264.366 0 0014.258 4.183c2.248.596 4.345.44 6.538-1.149 10.54-7.638 21.25-15.036 31.893-22.529.984-.694 1.916-1.469 3.159-2.43-8.576-4.73-16.862-9.204-25.055-13.834-19.354-10.936-39.716-18.801-62.077-20.737-2.848-.249-5.683-.682-8.524-1.03 2.763-.854 5.501-1.281 8.177-1.03 10.032.949 20.076 2.217 29.584 5.664 19.099 6.922 37.593 15.231 55.244 25.338 1.99 1.138 3.899 2.406 5.924 3.664 8.001-5.375 15.816-10.625 23.86-16.031-.795-.533-1.254-.976-1.801-1.191-5.722-2.225-10.618-5.733-15.152-9.771-7.29-6.493-14.513-13.053-21.77-19.58-10.911-9.815-22.866-18.021-36.555-23.497-7.761-3.105-15.594-6.038-23.382-9.076-.855-.332-1.641-.847-2.46-1.276.12-.282.238-.564.359-.845 3.805 1.165 7.638 2.247 11.411 3.51 19.888 6.642 38.236 16.063 54.032 30.065 6.722 5.957 13.321 12.072 20.297 17.721 4.785 3.876 10.07 7.151 15.249 10.509 1.035.671 2.926 1.117 3.879.622 3.181-1.657 6.117-3.787 8.765-5.491-3.386-4.225-6.606-7.791-9.307-11.71-7.641-11.093-14.971-22.4-22.604-33.496-9.667-14.048-21.304-26.144-35.797-35.347-2.477-1.575-4.773-3.439-7.114-5.218-.725-.553-1.324-1.27-2.548-2.467 1.409.29 1.894.287 2.277.487 12.492 6.494 23.917 14.558 32.869 25.433 9.438 11.464 18.168 23.52 27.048 35.437 4.715 6.33 9.07 12.934 13.642 19.375.93 1.317 2.099 2.467 3.154 3.691.336-.181.673-.366 1.01-.55-1.524-5.276-2.718-10.673-4.64-15.8-3.394-9.068-5.536-18.306-6.168-27.996-.792-12.145-3.496-23.849-9.139-34.794-2.766-5.359-5.062-10.958-7.528-16.47-.393-.874-.569-1.846-.844-2.774l.797-.452c1.131 1.567 2.479 3.028 3.355 4.727 2.548 4.952 4.745 10.09 7.376 14.996 6.232 11.621 8.391 24.152 9.001 37.141.215 4.614.606 9.353 1.872 13.76 2.389 8.318 5.454 16.442 8.307 24.621.216.618.984 1.043 1.495 1.559-.156 1.475-.308 2.947-.478 4.593 8.008 2.379 15.794 3.336 23.688 3.595 8.506.274 17.019.428 25.528.754 2.197.084 4.548.116 6.656 2.22-3.534-.09-6.599-.238-9.662-.228-8.826.025-17.656.259-26.477.133-6.985-.102-13.948-.671-20.089-4.636-.248-.16-.817.176-1.211.274-.01.412-.151.827-.006.985 6.333 7.036 13.292 13.254 21.517 18.135 5.951 3.529 12.047 7.228 16.979 11.988 12.962 12.505 19.096 28.22 19.416 46.215.021 1.114.209 2.222.364 3.79 6.963-5.591 10.204-12.439 10.246-20.558.045-7.959 1.054-15.706 2.957-23.41 1.754-7.101 2.336-14.35 1.677-21.658-.577-6.373-2.657-12.131-7.57-16.458-7.337-6.461-16.45-9.029-25.689-11.165-7.211-1.67-13.74.555-20.063 3.867-3.603 1.89-7.472 2.991-11.601 2.845-1.486-.052-2.859-.608-4.417.453-1.098.747-1.934-.331-1.761-1.724zm-127.79-70.47c.481-1.097.629-2.14 1.225-2.702 5.533-5.176 11.145-10.263 16.731-15.383 5.968-5.47 12.437-10.234 19.65-13.947 7.806-4.024 13.664-2.62 19.221 4.212 8.098 9.96 16.378 19.776 24.589 29.643.494.595 1.029 1.178 1.636 1.648 1.314 1.018 2.883 2.752 4.387 1.214.93-.95 1.294-3.262.853-4.619-2.928-9.03-7.432-17.032-15.9-22.128-1.725-1.04-3.552-1.928-5.184-3.1-2.007-1.433-3.992-2.948-5.731-4.685-2.014-2.01-3.641-4.393-2.432-7.471 1.188-3.023 3.93-3.776 6.782-4.095 8.471-.957 16.486.896 23.628 5.274 9.201 5.644 19.082 9.553 29.183 13.08 1.751.616 3.44 1.404 5.175 2.07 7.004 2.685 11.546 7.479 13.34 14.906.571 2.368 1.636 4.7 2.873 6.814 4.99 8.513 5.887 17.43 3.302 26.875-3.229 11.796-6.309 23.628-9.447 35.448-.395 1.485-.761 2.975-1.251 4.897 1.303-.181 2.361-.15 3.284-.484 3.342-1.22 6.735-2.364 9.93-3.904 6.266-3.014 12.762-3.909 19.457-2.277 7.825 1.91 15.507 4.32 22.642 8.208 8.772 4.782 13.928 11.998 15.237 21.986 1.038 7.932.566 15.797-1.035 23.569-1.443 7-2.419 13.985-2.512 21.169-.146 11.302-4.316 20.798-13.857 27.51-3.799 2.672-7.452 5.558-11.298 8.165-1.713 1.161-3.734 1.875-5.617 2.79l-.777-.745c.445-.997.65-2.245 1.375-2.947 3.224-3.107 6.428-6.274 9.971-8.989 2.35-1.802 3.175-3.638 3.155-6.602-.116-16.644-6.724-30.626-17.156-43.107-4.443-5.32-10.14-9.12-16.156-12.355-9.771-5.254-18.92-11.224-25.883-20.644-2.689 2.086-5.199 4.037-8.007 6.217 5.225 11.788 10.056 23.508 15.552 34.912 9.915 20.573 14.599 42.347 15.982 64.973.108 1.756-.02 3.526-.04 5.287-.376.018-.749.035-1.128.05-.639-4.912-1.394-9.813-1.892-14.743-1.59-15.606-3.862-31.058-10.171-45.597-1.787-4.114-3.822-8.119-5.701-12.193-4.27-9.271-8.514-18.554-12.769-27.831-.5-1.088-1.019-2.168-1.568-3.337-.772.395-1.361.615-1.864.962-18.543 12.689-37.056 25.421-55.628 38.073-11.434 7.792-21.867 16.794-32.144 26.009-1.463 1.312-2.109 2.733-2.336 4.765-1.22 10.92-2.232 21.897-4.152 32.704-3.496 19.644-11.954 37.366-22.51 54.145-.855 1.362-2.085 2.488-3.143 3.724-.265-.168-.531-.333-.796-.501.515-1.033 1.009-2.078 1.548-3.101 3.841-7.256 7.624-14.547 11.555-21.753 7.413-13.591 10.69-28.294 12.168-43.543.656-6.755 1.654-13.479 2.622-21.23-1.673 1.505-2.754 2.282-3.595 3.26-7.886 9.157-15.766 18.316-23.572 27.54-7.56 8.927-16.195 16.658-25.665 23.479-8.05 5.799-16.128 11.551-24.184 17.338-.592.424-1.098.964-2.263 1.994 9.778-2.264 17.545.613 24.8 5.665 3.303 2.301 6.663 4.537 10.1 6.632 9.143 5.577 19.264 7.329 29.802 7.449 3.734.043 6.445-1.439 8.633-4.481 4.955-6.877 8.273-14.509 10.9-22.489 3.938-11.974 5.61-24.423 7.735-36.782 1.076-6.245 2.534-12.435 4.064-18.59.55-2.21 1.524-4.445 2.818-6.311 2.703-3.887 6.929-4.148 10.407-.92 2.636 2.442 3.986 5.653 4.137 9.093.199 4.454.361 9.038-.428 13.393-2.945 16.26-8.067 31.794-16.628 46.074-4.161 6.944-8.652 13.609-14.893 18.896-.576.486-1.35.744-2.033 1.108.239.352.478.703.713 1.054 3.602.513 7.206 1.029 11.203 1.595l18.855-27.164c.39.195.778.387 1.17.576-.524 1.632-.709 3.49-1.63 4.854-4.325 6.408-8.844 12.684-13.316 18.991-.603.851-1.312 1.628-2.587 3.191 4.183.342 7.658 1.027 11.062.781 3.226-.232 6.381-1.443 9.884-2.299-1.793 4.499-5.869 7.337-10.651 7.116-4.625-.214-9.237-.936-13.835-1.566-4.601-.628-9.295-1.01-13.733-2.26-3.554-1.004-6.588-.355-10.052.223-11.434 1.907-22.62.624-32.752-5.464-4.902-2.943-9.444-6.486-14.117-9.798-5.53-3.917-11.591-5.926-18.381-4.802-2.26.374-4.412 1.389-6.614 2.105-3.287 1.076-4.608.324-4.255-3.032.637-6.006-1.287-11.259-3.853-16.481-4.63-9.412-4.014-11.867 5.138-17.257 6.526-3.842 13.38-7.125 20.094-10.649 5.207-2.731 10.474-5.356 15.61-8.222 1.57-.877 3.075-2.187 4.102-3.655 1.778-2.548.605-5.08-2.473-5.342-2.117-.18-4.414-.061-6.422.584-6.184 1.985-12.313 4.175-18.378 6.501-5.564 2.129-9.778 5.879-12.396 11.322-.67 1.392-1.414 2.768-2.26 4.058-1.898 2.897-3.844 3.067-5.712.112-6.634-10.506-8.03-20.856.997-30.639 8.999-9.752 20.126-15.363 33.297-16.674 5.232-.519 10.528-.446 15.796-.541 7.654-.139 15.095-1.463 22.376-3.777.737-.233 1.49-.439 2.197-.747 3.604-1.583 4.028-4.034.614-5.983-3.172-1.814-6.724-3.345-10.293-4.003-8.354-1.543-16.755-.871-24.772 1.938-3.273 1.144-6.246 3.352-9.108 5.418-2.628 1.899-4.918 4.258-7.357 6.411-3.539 3.127-7.57 5.306-12.114 6.653-4.136 1.23-8.177 2.767-12.294 4.06-1.242.388-2.932 1.003-3.828.488-1.7-.977-.547-2.747-.157-4.192 2.778-10.212 7.186-19.761 11.704-29.29 2.215-4.674 5.636-7.706 10.417-9.281 4.706-1.549 9.455-2.964 14.2-4.39 5.486-1.65 11.013-3.161 16.472-4.887 10.75-3.396 21.628-5.63 32.93-3.63 3.643.646 7.206 1.785 10.764 2.846 7.308 2.178 14.64 2.422 22.016.475 4.973-1.315 6.044-4.298 2.465-7.957-2.095-2.143-4.882-3.818-7.646-5.066-8.717-3.95-18.046-5.544-27.53-6.051-10.728-.575-21.375.507-31.94 2.356-5.333.932-9.984 3.152-13.653 7.318-4.435 5.033-9.713 9.078-15.343 12.721-2.59 1.673-4.927 3.737-7.398 5.601-1.151.872-2.585 1.759-3.646.327-.532-.715-.31-2.267.015-3.298 2.645-8.401 5.454-16.749 8.09-25.153 1.807-5.754 3.222-11.638 5.174-17.341 1.932-5.643 5.084-10.677 9.696-14.538 2.091-1.752 4.56-3.28 7.114-4.18 2.091-.737 3.505-1.61 4.238-3.683 1.654-4.654 3.767-9.184 4.981-13.946 2.358-9.244 6.729-17.296 13.106-24.283 4.507-4.94 9.556-8.348 14.903-7.788z" fill="#fff"/></svg>