<svg width="120" height="120" fill="none" xmlns="http://www.w3.org/2000/svg"><circle cx="60" cy="60" r="60" fill="#489192"/><g filter="url(#filter0_d_615_3484)" fill="#fff"><path d="M100 56.333a9.345 9.345 0 00-9.334-9.334h-12v-9.333a1.333 1.333 0 00-1.536-1.317l-15.797 2.43v-1.246A6.678 6.678 0 0066.666 31c0-5.819-5.49-11.376-5.724-11.61a1.333 1.333 0 00-1.885 0c-.235.234-5.724 5.791-5.724 11.61a6.678 6.678 0 005.333 6.533v1.657l-16.202 2.494c-.65.1-1.13.658-1.13 1.315v14.855A14.59 14.59 0 0038 55.179a1.333 1.333 0 00-1.334 0 14.731 14.731 0 00-7.2 10.781 14.473 14.473 0 00-2.8-.294c-.588.002-1.176.04-1.76.115a1.33 1.33 0 00-1.066.8 14.655 14.655 0 005.076 17.751H20V87h3.176l2.297 4.596c.226.452.688.737 1.194.737h50.666c.736 0 1.333-.597 1.333-1.333v-4h8.51l2.297 4.596c.225.452.688.737 1.193.737h5.333c.737 0 1.334-.597 1.334-1.333v-4h1.333c.736 0 1.333-.597 1.333-1.333v-5.334c0-.736-.597-1.333-1.333-1.333h-1.481c3.682-3.584 3.763-9.475.178-13.158a9.317 9.317 0 00-1.912-1.508 9.333 9.333 0 004.548-8zM56 31c0-3.41 2.566-6.955 4-8.667 1.434 1.71 4 5.25 4 8.667a4 4 0 01-2.667 3.754v-2.421h-2.667v2.421A4 4 0 0156 31zM44 61.666V44.143l32-4.922v7.778h-4a9.321 9.321 0 00-6.44 16.072A9.319 9.319 0 0060.148 79h-1.482c-.736 0-1.333.597-1.333 1.333v5.334c0 .736.597 1.333 1.333 1.333H60v2.667h-9.843L51.49 87h3.176v-2.667H45.74a14.645 14.645 0 005.086-17.75 1.333 1.333 0 00-1.066-.8 14.046 14.046 0 00-4.556.16 14.603 14.603 0 00-1.29-4.276H44zM36.677 84.31c-2.197-6.253 1.092-13.103 7.344-15.3A12.005 12.005 0 0148 68.333c.209 0 .428.009.656.023 2.196 6.253-1.092 13.102-7.345 15.299a12.004 12.004 0 01-3.978.678c-.21 0-.428-.008-.656-.022zm.656-26.407a12.041 12.041 0 015.26 8.808 14.7 14.7 0 00-5.248 3.572 14.756 14.756 0 00-5.273-3.55 12.038 12.038 0 015.261-8.83zm-12 14.43a11.95 11.95 0 01.678-3.978c.228-.014.446-.023.656-.023a11.876 11.876 0 019.002 4.09 14.439 14.439 0 00-1.906 11.369 12 12 0 01-8.43-11.459zm21.843 17.333H27.49l-1.334-2.667H48.51l-1.333 2.667zm18.666 0h-3.176v-2.667h4.51l-1.334 2.667zm10.157 0h-7.175l1.333-2.667h5.842v2.667zm18.667 0H91.49l-1.333-2.667h4.509v2.667zm2.666-8v2.666H60v-2.666h37.332zm0-9.334A6.675 6.675 0 0190.666 79h-24a6.667 6.667 0 010-13.333H84a4 4 0 110 8H70.666a1.333 1.333 0 010-2.667H80v-2.666h-9.333a4 4 0 100 8H84a6.675 6.675 0 006.667-6.667 6.598 6.598 0 00-1.368-4h1.368a6.675 6.675 0 016.666 6.666zM72 63a6.667 6.667 0 010-13.333h14.667a4 4 0 110 8H73.333a1.333 1.333 0 010-2.667h9.333v-2.666h-9.333a4 4 0 100 8h13.333a6.675 6.675 0 006.666-6.667 6.603 6.603 0 00-1.231-3.835A6.667 6.667 0 0190.665 63H71.999z"/><path d="M46.666 47h2.667v10.666h-2.667V46.999zm0 13.333h2.667v2.666h-2.667v-2.666z"/></g><defs><filter id="filter0_d_615_3484" x="19" y="19" width="82" height="75.332" filterUnits="userSpaceOnUse" color-interpolation-filters="sRGB"><feFlood flood-opacity="0" result="BackgroundImageFix"/><feColorMatrix in="SourceAlpha" values="0 0 0 0 0 0 0 0 0 0 0 0 0 0 0 0 0 0 127 0" result="hardAlpha"/><feOffset dy="1"/><feGaussianBlur stdDeviation=".5"/><feComposite in2="hardAlpha" operator="out"/><feColorMatrix values="0 0 0 0 0 0 0 0 0 0 0 0 0 0 0 0 0 0 0.1 0"/><feBlend in2="BackgroundImageFix" result="effect1_dropShadow_615_3484"/><feBlend in="SourceGraphic" in2="effect1_dropShadow_615_3484" result="shape"/></filter></defs></svg>