<svg width="120" height="120" fill="none" xmlns="http://www.w3.org/2000/svg"><circle cx="60" cy="60" r="60" fill="#489192"/><g filter="url(#filter0_d_615_3473)" fill="#fff"><path d="M53.19 72.633l-.351.14.99 2.476.35-.141c3.59-1.435 8.053-1.435 11.641 0l.352.14.99-2.476-.352-.14c-4.211-1.684-9.409-1.684-13.62 0zm5.477-19.948h2.666v14.662h-2.666V52.685z"/><path d="M97.333 26.027v24.46c0 .43-.069.856-.204 1.264l-6.341 19.016-9.894 15.48a2.038 2.038 0 01-1.366.916 2.181 2.181 0 01-2.274-3.156c2.319-4.209 6.583-12.023 6.583-12.023.05-.091.09-.188.117-.288l1.078-3.952 4.24-13.322-2.542-.808-4.249 13.351.01.003c-.006.019-.02.032-.025.05a2.342 2.342 0 01-4.558-1.074l2.067-10.331a1.36 1.36 0 00.025-.262v-3.905A21.28 21.28 0 0186.276 36.3c.25-.25.39-.589.39-.942v-9.33H84v8.786a24.242 24.242 0 00-2.514 3.14c-7.364-11.863-22.954-15.512-34.82-8.151a25.284 25.284 0 00-8.153 8.149A24.251 24.251 0 0036 34.814v-8.787h-2.667v9.33c0 .354.141.693.391.943A21.28 21.28 0 0140 51.447v3.904c0 .087.009.175.026.261l2.067 10.331a2.342 2.342 0 01-4.558 1.076c-.005-.02-.02-.032-.025-.05l.01-.003-4.25-13.352-2.54.808 4.238 13.322 1.079 3.952c.028.1.067.197.117.288 0 0 4.264 7.814 6.583 12.023.514.932.259 2.08-.672 2.778a2.06 2.06 0 01-2.968-.538l-9.894-15.48-6.34-19.015a3.984 3.984 0 01-.206-1.265v-24.46H20v24.46c0 .716.115 1.428.343 2.107l6.393 19.173c.034.104.081.204.14.296l9.982 15.62a4.741 4.741 0 003.969 2.178 4.845 4.845 0 002.914-.995c.053-.04.094-.088.145-.13.096.11.184.227.282.334a21.085 21.085 0 002.499 2.33v5.056a24.695 24.695 0 01-1.266 7.791A1.333 1.333 0 0046.667 106h26.666a1.333 1.333 0 001.266-1.753 24.695 24.695 0 01-1.266-7.79V91.4a21.038 21.038 0 002.49-2.32c.103-.113.195-.233.295-.348.072.06.132.128.208.185a4.726 4.726 0 006.816-1.235l9.982-15.619c.059-.092.106-.192.14-.296l6.395-19.173c.226-.68.341-1.39.341-2.107v-24.46h-2.667zM79.625 41.225a23.42 23.42 0 00-1.068-1.208l.661-.66c.247.396.48.802.705 1.217-.108.213-.196.435-.298.65zm-1.962-4.085l-1.015 1.017a24.762 24.762 0 00-3.184-2.379l1.474-1.472c.99.863 1.901 1.812 2.725 2.834zm-28.69-2.696l-1.78-1.778a22.523 22.523 0 014.166-2.271l1.3 2.597a24.23 24.23 0 00-3.687 1.453zm6.35-2.09l-1.41-2.816a22.66 22.66 0 014.754-.78v3.189c-1.123.06-2.24.195-3.345.406zm6.01-3.615c1.613.092 3.21.354 4.767.783l-1.42 2.833a24.922 24.922 0 00-3.347-.408V28.74zm7.309 1.66a22.457 22.457 0 014.177 2.255l-1.792 1.79a24.255 24.255 0 00-3.685-1.452l1.3-2.592zM45.08 34.324l1.456 1.455a24.489 24.489 0 00-3.184 2.378l-1.002-1.001a22.497 22.497 0 011.617-1.826c.357-.355.738-.677 1.113-1.006zm-4.3 5.032l.663.662c-.364.39-.725.786-1.068 1.208-.101-.215-.19-.436-.297-.648.224-.414.453-.824.702-1.222zm30.77 63.979h-23.1c.586-2.245.883-4.557.883-6.878V93.26a21.305 21.305 0 0021.333.001v3.196c.001 2.32.298 4.632.884 6.877zm2.298-16.044a18.499 18.499 0 01-6.281 4.563 18.721 18.721 0 01-15.13 0 18.509 18.509 0 01-6.293-4.575c-.246-.268-.47-.549-.7-.825a4.725 4.725 0 00-.362-3.732 4679.555 4679.555 0 01-6.245-11.404 5.008 5.008 0 005.87-5.897l-.903-4.515c1.18.115 2.366.194 3.557.194a36.18 36.18 0 006.202-.53l-.459-2.626a33.817 33.817 0 01-9.85.217l-.587-2.941v-2.3c3.01-1.606 6.645-1.996 10.338-1.062l.656-2.583c-3.875-.983-7.721-.707-11.063.724a24.041 24.041 0 00-1.073-5.856 22.335 22.335 0 012.21-2.694c.071-.08.152-.16.234-.243.069-.069.135-.138.27-.255a22.142 22.142 0 015.1-3.714 21.69 21.69 0 015.556-2.075 22.448 22.448 0 0110.226.004 21.662 21.662 0 015.547 2.076 22.18 22.18 0 015.115 3.73c.179.166.343.331.528.528.79.823 1.513 1.707 2.164 2.643-.6 1.9-.96 3.867-1.074 5.857-3.34-1.43-7.185-1.707-11.063-.725l.656 2.584c3.693-.936 7.33-.546 10.339 1.061v2.3l-.614 3.067a33.468 33.468 0 01-8.49-.343l-.459 2.627a35.96 35.96 0 006.13.52c.76 0 1.518-.028 2.274-.076l-.882 4.406a5.007 5.007 0 005.87 5.897c-1.048 1.92-4.318 7.908-6.245 11.405a4.692 4.692 0 00-.355 3.724c-.234.281-.46.565-.714.844z"/></g><defs><filter id="filter0_d_615_3473" x="19" y="26" width="82" height="82" filterUnits="userSpaceOnUse" color-interpolation-filters="sRGB"><feFlood flood-opacity="0" result="BackgroundImageFix"/><feColorMatrix in="SourceAlpha" values="0 0 0 0 0 0 0 0 0 0 0 0 0 0 0 0 0 0 127 0" result="hardAlpha"/><feOffset dy="1"/><feGaussianBlur stdDeviation=".5"/><feComposite in2="hardAlpha" operator="out"/><feColorMatrix values="0 0 0 0 0 0 0 0 0 0 0 0 0 0 0 0 0 0 0.1 0"/><feBlend in2="BackgroundImageFix" result="effect1_dropShadow_615_3473"/><feBlend in="SourceGraphic" in2="effect1_dropShadow_615_3473" result="shape"/></filter></defs></svg>