<svg width="312" height="300" fill="none" xmlns="http://www.w3.org/2000/svg"><path opacity=".5" d="M96.346 168.872l-71.367 51.306c19.232-23.378 43.06-40.441 71.367-51.306zm45.748-39.853c-18.019 8.871-86.03 32.176-93.203 32.27 29.233-17.155 59.979-28.428 93.203-32.27zm-79.082 76.926c-.343.664-.653 1.347-1.036 1.987-9.592 16.041-19.036 32.176-28.852 48.079-5.82 9.427-12.19 18.518-18.417 27.69-1.226 1.806-2.925 3.291-4.405 4.923 5.77-22.852 36.192-70.478 52.71-82.679zm-3.746 53.733l-1.518-.826c5.317-11.881 10.43-23.859 15.997-35.623 9.52-20.121 21.063-38.989 35.723-55.839 2.247-2.583 4.501-5.152 8.795-6.705-1.126 2.182-1.8 3.536-2.515 4.868-5.519 10.271-11.143 20.487-16.547 30.819-9.92 18.969-20.429 37.579-32.94 54.984-2.11 2.934-4.653 5.555-6.995 8.322zm11.238-154.017c21.418-7.99 43.356-13.602 66.34-14.382 23.159-.786 58.35 3.401 67.666 8.196-44.553 5.508-89.135 7.627-134.006 6.186zm95.466 28.957c-.225.73-.366 1.502-.691 2.186-9.293 19.502-18.259 39.171-28.024 58.435-7.93 15.644-17.575 30.295-29.272 43.473-1.731 1.95-3.684 3.701-5.533 5.545-.191-2.516.267-4.518 1.036-6.393 5.174-12.614 10.248-25.272 15.674-37.777 5.895-13.589 12.637-26.74 21.378-38.788 7.205-9.93 15.074-19.224 25.432-26.681zm38.829-19.253c.536.181 1.071.364 1.607.546-11.461 28.358-22.505 56.896-34.576 84.992-5.28 12.29-12.606 23.708-19.146 35.443-.934 1.677-1.7 3.905-4.533 4.605.234-1.377.299-2.312.557-3.19 4.491-15.332 8.608-30.788 13.619-45.949 6.063-18.347 13.678-36.076 24.277-52.364 5.503-8.457 11.226-16.755 18.195-24.083zm-85.027-82.734c29.476-3.564 85.512 17.831 117.715 46.914-19.307-5.257-38.534-10.791-57.713-16.485-15.594-4.63-30.007-11.907-43.904-20.237-5.446-3.264-10.736-6.787-16.098-10.193zm33.924-28.737c16.054.957 48.469 9.995 71.032 20.027 20.805 9.248 53.067 32.443 58.354 42.623-14.85-4.864-29.928-8.958-43.723-16.348-28.421-15.226-56.736-30.65-85.663-46.302zm97.553 245.137c-7.09-58.585 6.624-112.784 34.341-164.03-2.663 56.528-13.924 111.244-34.341 164.03zm-3.303-149.89c-1.263 5.876-2.256 10.932-3.444 15.942-8.505 35.864-16.267 71.963-31.752 105.722-5.686 12.395-11.607 24.685-17.61 36.931-1.466 2.99-3.674 5.615-6.051 9.173-3.782-34.745 34.011-142.273 58.857-167.768zm44.04-22.35c6.325-2.502 13.51-2.495 19.507-7.595-3.326-1.609-6.102-.764-8.787-.403-2.691.362-5.35.961-7.285 1.319-6.11-5.338-11.555-10.615-17.527-15.204-13.719-10.545-27.208-21.458-42.445-29.841-23.871-13.133-49.403-20.85-76.535-23.344-4.061-.372-8.089-1.104-12.144-1.58-1.506-.175-3.044-.09-5.471-.143.839 1.699 1.091 3.128 1.934 3.745 2.658 1.945 5.441 3.767 8.347 5.313a22679.384 22679.384 0 0072.731 38.54c17.454 9.208 35.869 16.08 54.592 22.179 1.48.481 2.956.979 4.406 1.54.27.103.408.545.937 1.308-11.504 3.189-22.831 6.33-34.461 9.552-2.563-5.847-7.463-9.644-12.274-13.573-17.002-13.885-36.556-22.9-57.123-29.915-16.997-5.796-34.269-10.502-52.351-11.319-2.9-.13-5.873-.132-8.707.385-1.496.273-3.515 1.555-3.919 2.822-.385 1.204.705 3.258 1.725 4.437 1.371 1.586 3.285 2.706 4.987 3.997 24.776 18.798 52.845 30.444 82.759 38.033 11.314 2.87 22.684 5.52 34.475 8.377-.934.656-1.673 1.369-2.552 1.76-5.342 2.38-10.673 4.79-16.106 6.943-1.426.564-3.199.25-5.563.382l-1.711 2.309c-17.566-9.004-36.543-9.637-55.353-10.597-25.917-1.322-51.263 2.37-76 10.25-5.385 1.716-10.771 3.423-16.151 5.149-1.484.477-2.966.968-4.42 1.527-1.985.763-4.522 1.347-4.238 4.071.277 2.656 2.683 3.004 4.909 3.108 6.216.288 12.434.807 18.65.787 37.777-.121 75.457-1.993 112.953-6.874 1.453-.189 2.936-.127 4.672.709-2.173 1.158-4.359 2.291-6.516 3.478-8.367 4.607-16.7 9.28-25.112 13.803-1.437.773-3.396 1.648-4.774 1.263-5.799-1.62-11.602-1.268-17.39-.553-32.738 4.045-63.262 14.699-91.744 31.28-6.569 3.824-12.962 7.951-19.416 11.969-.985.612-2.061 1.241-2.733 2.134-.489.653-.748 1.917-.439 2.608.31.691 1.486 1.461 2.22 1.404 2.117-.165 4.262-.538 6.289-1.171 7.997-2.497 16.025-4.923 23.91-7.743 27.517-9.839 55.482-18.457 82.341-30.104.798-.347 1.688-.48 2.836.055-1.185.847-2.352 1.72-3.557 2.535-11.141 7.534-22.278 15.075-33.446 22.568-1.434.962-2.958 1.999-4.59 2.423-20.859 5.423-39.54 15.258-56.836 27.928-11.553 8.462-21.484 18.605-30.553 29.639-3.339 4.064-6.766 8.055-10.129 12.099-.868 1.044-1.898 2.065-2.38 3.285-.359.912-.349 2.473.214 3.107.606.682 2.218 1.091 3.09.777 1.797-.645 3.525-1.679 5.05-2.854 11.113-8.565 22.17-17.202 33.242-25.823 1.99-1.548 3.965-3.117 6.595-4.187-.63.929-1.148 1.961-1.904 2.771-19.124 20.447-33.247 44.104-44.662 69.511-1.757 3.912-3.631 7.772-5.43 11.666-.653 1.414-1.314 2.833-1.848 4.294-.748 2.044-1.5 4.259.555 5.924 2.258 1.828 4.632.786 6.387-.785 4.194-3.754 8.503-7.476 12.126-11.754 9.495-11.207 16.384-24.159 23.615-36.85 10.125-17.772 20.091-35.636 30.127-53.459.286-.509.486-1.122.9-1.494 5.444-4.91 10.918-9.785 16.385-14.668l.87.845c-1.033 1.59-2.008 3.222-3.109 4.764-11.505 16.119-20.137 33.781-27.844 51.933-3.049 7.18-5.94 14.424-8.853 21.661-.725 1.804-1.592 3.658-1.756 5.543-.118 1.364.423 3.357 1.4 4.078.944.696 3.095.623 4.232.001 2.186-1.196 4.149-2.891 5.996-4.605 7.092-6.578 11.954-14.851 16.89-23.005 14.343-23.688 27.149-48.202 38.849-73.298.164-.354.379-.705.444-1.08 1.304-7.588 6.452-11.85 12.711-15.503 7.223-4.214 14.143-8.948 21.828-12.825-.853 1.112-1.606 2.319-2.574 3.321-16.035 16.628-28.006 35.917-36.885 57.133-5.418 12.948-10.404 26.079-15.427 39.188-1.246 3.25-2.229 6.688-2.701 10.125-.492 3.573 1.99 5.057 5.123 3.212 1.99-1.171 3.788-2.752 5.459-4.37 14.398-13.934 26.777-29.525 35.315-47.662 10.622-22.558 20.187-45.612 30.505-68.317 1.533-3.375 4.114-6.99 7.2-8.8 8.204-4.811 16.95-8.698 25.423-12.922-.479.658-1.068 1.599-1.783 2.432-14.717 17.161-25.975 36.406-34.786 57.185a421.435 421.435 0 00-17.654 50.19c-1.797 6.376-3.158 12.875-4.648 19.334-.349 1.513-.724 3.13-.528 4.626.206 1.579.687 3.841 1.768 4.39 1.159.59 3.552.028 4.703-.903 2.545-2.058 5.102-4.372 6.854-7.099 6.731-10.475 13.543-20.933 19.59-31.806 10.557-18.983 18.148-39.273 24.768-59.917 4.407-13.742 8.55-27.569 12.936-41.318.559-1.755 1.474-3.942 2.899-4.787 8.678-5.142 17.965-8.991 27.913-11.834-.466.78-.859 1.615-1.409 2.33-14.986 19.473-25.929 41.183-34.993 63.885-3.468 8.687-6.37 17.603-9.436 26.448-8.481 24.465-13.098 49.729-15.436 75.453-.317 3.487-.838 7.002-.668 10.476.244 4.984 3.715 6.698 7.507 3.532 3.085-2.577 5.99-5.72 7.992-9.18 4.971-8.589 9.795-17.312 13.926-26.327 7.962-17.373 15.735-34.88 20.655-53.422 7.4-27.891 15.127-55.728 18.829-84.44.58-4.493.734-8.965 4.391-12.27.834-.753 1.637-1.808 2.629-2.078 7.109-1.93 14.264-3.693 22.768-5.854-2.97 5.992-5.147 10.872-7.735 15.52-15.095 27.12-23.904 56.121-27.433 86.954-2.697 23.576-1.651 47.052-.161 70.576.131 2.079.641 4.134 1.2 7.603 2.408-2.637 4.379-4.162 5.516-6.162 3.173-5.575 6.697-11.095 8.854-17.08 17.435-48.382 28.419-98.065 29.262-149.701.048-2.914-.16-5.832-.27-9.403z" fill="#fff"/></svg>