<svg width="120" height="120" fill="none" xmlns="http://www.w3.org/2000/svg"><circle cx="60" cy="60" r="60" fill="#489192"/><g filter="url(#filter0_d_615_3498)" fill="#fff"><path d="M98.638 57.305a38.71 38.71 0 00-13.892 2.043 38.433 38.433 0 00-2.82-13.745 1.411 1.411 0 00-1.838-.78 38.763 38.763 0 00-7.823 4.256 60.741 60.741 0 00-11.27-15.52 1.41 1.41 0 00-1.994 0 60.785 60.785 0 00-11.268 15.518 38.74 38.74 0 00-7.82-4.254 1.411 1.411 0 00-1.838.78 38.434 38.434 0 00-2.822 13.767 38.526 38.526 0 00-13.891-2.065A1.411 1.411 0 0020 58.765c.73 20.88 17.946 37.369 38.68 37.369.437 0 .878-.008 1.319-.023.442.015.881.023 1.32.023 20.73 0 37.95-16.49 38.68-37.37a1.411 1.411 0 00-1.362-1.46zm-58.46-9.3a35.548 35.548 0 0110.608 7.32 35.682 35.682 0 017.692 11.442 38.6 38.6 0 00-2.373 9.646 38.985 38.985 0 00-18.034-15.95 35.526 35.526 0 012.108-12.458zM22.9 60.103c9.055.039 17.635 3.433 24.296 9.645 6.66 6.21 10.646 14.532 11.315 23.564C39.845 93.224 24.29 78.719 22.9 60.103zm29.882-6.774a38.544 38.544 0 00-2.768-2.513A57.877 57.877 0 0160 36.576a57.853 57.853 0 019.984 14.242 38.578 38.578 0 00-2.766 2.51 38.452 38.452 0 00-7.217 10 38.43 38.43 0 00-7.218-9.999zm7.212 32.208a38.375 38.375 0 00-1.296-3.83 35.752 35.752 0 012.61-14.428 35.726 35.726 0 017.905-11.955 35.571 35.571 0 0110.61-7.32 35.534 35.534 0 012.107 12.431 38.75 38.75 0 00-11.05 7.248c-5.279 4.922-8.997 11.074-10.886 17.854zm1.494 7.774c.67-9.03 4.655-17.352 11.316-23.564 6.661-6.211 15.24-9.606 24.296-9.644-1.39 18.617-16.943 33.122-35.612 33.208zM22.201 53.182a1.411 1.411 0 100-2.822 1.411 1.411 0 000 2.822zm17.183-15.666a1.411 1.411 0 100-2.822 1.411 1.411 0 000 2.822zm20.615-11.694a1.411 1.411 0 100-2.822 1.411 1.411 0 000 2.822zm20.618 11.694a1.411 1.411 0 100-2.822 1.411 1.411 0 000 2.822zm17.179 15.666a1.411 1.411 0 100-2.822 1.411 1.411 0 000 2.822z"/></g><defs><filter id="filter0_d_615_3498" x="19" y="23" width="82" height="75.134" filterUnits="userSpaceOnUse" color-interpolation-filters="sRGB"><feFlood flood-opacity="0" result="BackgroundImageFix"/><feColorMatrix in="SourceAlpha" values="0 0 0 0 0 0 0 0 0 0 0 0 0 0 0 0 0 0 127 0" result="hardAlpha"/><feOffset dy="1"/><feGaussianBlur stdDeviation=".5"/><feComposite in2="hardAlpha" operator="out"/><feColorMatrix values="0 0 0 0 0 0 0 0 0 0 0 0 0 0 0 0 0 0 0.1 0"/><feBlend in2="BackgroundImageFix" result="effect1_dropShadow_615_3498"/><feBlend in="SourceGraphic" in2="effect1_dropShadow_615_3498" result="shape"/></filter></defs></svg>