<svg width="20" height="20" fill="none" xmlns="http://www.w3.org/2000/svg"><g filter="url(#filter0_d_615_3303)"><path d="M16.91 11.435c-.813-.653-1.558-.97-2.28-.97-1.042 0-1.793.663-2.473 1.343a.395.395 0 01-.298.115c-.573 0-1.58-.718-2.995-2.133C7.199 8.126 6.57 7.067 6.993 6.644c1.147-1.147 1.505-2.297-.251-4.481C6.113 1.38 5.498 1 4.862 1c-.86 0-1.512.686-2.088 1.292-.1.105-.194.204-.286.296-.651.65-.65 2.07 0 3.798.716 1.895 2.127 3.957 3.975 5.805 1.43 1.429 2.985 2.584 4.497 3.36 1.321.676 2.602 1.04 3.608 1.04.63 0 1.14-.138 1.478-.417.686-.567 1.963-1.617 1.954-2.865-.005-.669-.371-1.296-1.09-1.873z" fill="#fff"/></g><defs><filter id="filter0_d_615_3303" x="0" y="0" width="20" height="19.59" filterUnits="userSpaceOnUse" color-interpolation-filters="sRGB"><feFlood flood-opacity="0" result="BackgroundImageFix"/><feColorMatrix in="SourceAlpha" values="0 0 0 0 0 0 0 0 0 0 0 0 0 0 0 0 0 0 127 0" result="hardAlpha"/><feOffset dy="1"/><feGaussianBlur stdDeviation="1"/><feComposite in2="hardAlpha" operator="out"/><feColorMatrix values="0 0 0 0 0 0 0 0 0 0 0 0 0 0 0 0 0 0 0.1 0"/><feBlend in2="BackgroundImageFix" result="effect1_dropShadow_615_3303"/><feBlend in="SourceGraphic" in2="effect1_dropShadow_615_3303" result="shape"/></filter></defs></svg>