<svg width="16" height="16" fill="none" xmlns="http://www.w3.org/2000/svg"><path d="M5.261 2.103a.803.803 0 00-.295-.369.8.8 0 00-.45-.134h-2.2a.714.714 0 00-.716.716c0 3.337 1.353 6.358 3.54 8.544a12.046 12.046 0 008.544 3.54.713.713 0 00.716-.716h.003v-2.201H14.4a.8.8 0 00-.134-.45.804.804 0 00-.368-.295l-2.11-.843a.8.8 0 00-.812.128l-.544.454a2.389 2.389 0 01-1.641.553 2.396 2.396 0 01-1.631-.742L5.67 8.797l-.002.001a2.397 2.397 0 01-.145-3.23l.453-.544a.806.806 0 00.13-.813L5.26 2.103zm.6-1.687c.389.263.7.64.881 1.093l.845 2.109A2.395 2.395 0 017.2 6.042l-.453.545a.803.803 0 00.051 1.08l-.001.002 1.49 1.492.044.04a.797.797 0 001.081.05l.545-.453a2.393 2.393 0 012.424-.385l2.11.844c.453.181.829.493 1.092.882.266.392.416.857.416 1.344h-.003v2.2H16c0 .64-.26 1.22-.679 1.638-.419.42-.998.679-1.637.679-3.779 0-7.2-1.532-9.676-4.008A13.641 13.641 0 010 2.316 2.313 2.313 0 012.316 0h2.2c.487 0 .952.15 1.344.416z" fill="#fff"/></svg>