<svg width="16" height="16" fill="none" xmlns="http://www.w3.org/2000/svg"><path d="M14.91 10.435c-.813-.653-1.558-.97-2.28-.97-1.042 0-1.793.663-2.473 1.343a.395.395 0 01-.298.115c-.573 0-1.58-.718-2.995-2.133C5.199 7.126 4.57 6.067 4.993 5.644c1.147-1.147 1.505-2.297-.251-4.481C4.113.38 3.498 0 2.862 0 2.001 0 1.35.686.773 1.292c-.1.105-.194.204-.286.296-.651.65-.65 2.07 0 3.798.716 1.895 2.127 3.957 3.975 5.805 1.43 1.429 2.985 2.584 4.497 3.36 1.321.676 2.602 1.04 3.608 1.04.63 0 1.14-.138 1.478-.417.686-.567 1.963-1.617 1.954-2.865-.005-.669-.371-1.296-1.09-1.873z" fill="#000"/></svg>