<svg width="26" height="23" fill="none" xmlns="http://www.w3.org/2000/svg"><path fill-rule="evenodd" clip-rule="evenodd" d="M23.306.155c1.407-.592 2.915.598 2.667 2.104l-2.935 17.794c-.283 1.716-2.167 2.7-3.741 1.846-1.317-.716-3.272-1.817-5.033-2.968-.88-.575-3.572-2.417-3.241-3.729.283-1.121 4.81-5.336 7.397-7.842 1.016-.984.553-1.553-.647-.647-2.977 2.249-7.757 5.668-9.337 6.63-1.395.848-2.123.993-2.992.848-1.586-.264-3.056-.673-4.256-1.17-1.623-.673-1.544-2.903-.002-3.552L23.306.155z" fill="#fff"/></svg>