<svg width="26" height="26" fill="none" xmlns="http://www.w3.org/2000/svg"><path fill-rule="evenodd" clip-rule="evenodd" d="M20.567 18.357c-.313.887-1.558 1.621-2.552 1.835-.68.145-1.566.26-4.554-.979-3.355-1.39-8.014-6.342-8.014-9.637 0-1.677.967-3.63 2.658-3.63.814 0 .994.015 1.261.657.314.757 1.078 2.622 1.17 2.813.375.784-.383 1.243-.933 1.926-.175.205-.374.428-.152.81.221.375.985 1.62 2.109 2.62 1.45 1.293 2.627 1.705 3.048 1.881.313.13.688.1.917-.145.29-.313.65-.833 1.016-1.345.259-.367.588-.413.932-.283.233.08 3.19 1.454 3.315 1.674.093.16.093.917-.22 1.803zM13.003 0h-.007C5.83 0 0 5.831 0 13a12.9 12.9 0 002.475 7.62l-1.62 4.83 4.996-1.597A12.9 12.9 0 0013.003 26C20.169 26 26 20.169 26 13S20.17 0 13.003 0z" fill="#fff"/></svg>